<svg xmlns="http://www.w3.org/2000/svg" xmlns:xlink="http://www.w3.org/1999/xlink" width="2000" zoomAndPan="magnify" viewBox="0 0 1500 1499.999933" height="2000" preserveAspectRatio="xMidYMid meet" version="1.0"><defs><clipPath id="429fe3c1c9"><path d="M 69 198 L 1455.96875 198 L 1455.96875 1302.835938 L 69 1302.835938 Z M 69 198 " clip-rule="nonzero"/></clipPath><clipPath id="01c316b4a3"><path d="M 190 297 L 1386.96875 297 L 1386.96875 1104.835938 L 190 1104.835938 Z M 190 297 " clip-rule="nonzero"/></clipPath><clipPath id="1431397d98"><path d="M 189 101 L 1386.96875 101 L 1386.96875 483 L 189 483 Z M 189 101 " clip-rule="nonzero"/></clipPath><clipPath id="0c58f59108"><rect x="0" width="1387" y="0" height="1105"/></clipPath><clipPath id="bd942e6309"><path d="M 824 864 L 1002 864 L 1002 1115.789062 L 824 1115.789062 Z M 824 864 " clip-rule="nonzero"/></clipPath><clipPath id="cb49a00858"><path d="M 750 842.039062 L 931 842.039062 L 931 1092 L 750 1092 Z M 750 842.039062 " clip-rule="nonzero"/></clipPath></defs><g clip-path="url(#429fe3c1c9)"><g transform="matrix(1, 0, 0, 1, 69, 198)"><g clip-path="url(#0c58f59108)"><path fill="#fff8ed" d="M 330.09375 847.929688 C 300.457031 847.878906 255.996094 845.609375 229.824219 831.703125 C 198.933594 815.292969 178.570312 784.539062 161.628906 753.9375 C 124.3125 686.523438 96.921875 612.984375 87.28125 536.539062 C 84.863281 517.347656 83.582031 497.707031 87.621094 478.792969 C 93.199219 452.671875 109.222656 428.933594 131.363281 413.996094 C 153.5 399.054688 181.507812 393.074219 207.820312 397.675781 L 202.4375 327.085938 C 130.421875 332.570312 37.027344 344.039062 16.257812 438.261719 C -14.851562 579.398438 75.207031 787.320312 154.507812 861.765625 C 207.011719 911.054688 280.757812 940.863281 349.765625 920.265625 Z M 330.09375 847.929688 " fill-opacity="1" fill-rule="nonzero"/><path fill="#000000" d="M 303.652344 935.667969 C 320.203125 935.667969 336.515625 933.367188 352.269531 928.664062 L 360.464844 926.21875 L 336.796875 839.171875 L 330.105469 839.164062 C 285.777344 839.09375 252.519531 833.835938 233.933594 823.964844 C 204.578125 808.367188 184.785156 777.667969 169.296875 749.691406 C 129.511719 677.820312 104.84375 605.738281 95.976562 535.441406 C 93.867188 518.707031 92.242188 499.109375 96.191406 480.621094 C 101.320312 456.625 115.925781 434.984375 136.265625 421.257812 C 156.605469 407.53125 182.148438 402.082031 206.3125 406.308594 L 217.417969 408.25 L 210.507812 317.683594 L 201.769531 318.347656 C 142.035156 322.894531 30.847656 331.359375 7.699219 436.375 C -25.195312 585.601562 70.667969 795.082031 148.507812 868.152344 C 195.296875 912.078125 250.667969 935.667969 303.652344 935.667969 Z M 338.996094 914.074219 C 280.804688 927.835938 214.726562 906.273438 160.503906 855.375 C 84.695312 784.210938 -5.679688 578.5 24.816406 440.148438 C 42.875 358.21875 120.46875 342.761719 194.367188 336.527344 L 198.269531 387.679688 C 173.097656 385.851562 147.441406 392.570312 126.457031 406.730469 C 102.394531 422.96875 85.113281 448.566406 79.050781 476.960938 C 74.554688 498.003906 76.292969 519.441406 78.585938 537.632812 C 87.730469 610.148438 113.089844 684.351562 153.960938 758.179688 C 170.695312 788.40625 192.304688 821.699219 225.710938 839.445312 C 246.101562 850.277344 278.9375 856.054688 323.382812 856.640625 Z M 338.996094 914.074219 " fill-opacity="1" fill-rule="nonzero"/><path fill="#fff8ed" d="M 198.777344 298.144531 C 213.960938 449.054688 235.488281 572.132812 275.617188 718.398438 C 305.085938 825.804688 339.011719 943.957031 430.683594 1007.207031 C 495.8125 1052.140625 589.921875 1080.414062 668.65625 1088.269531 C 774.597656 1098.835938 883.105469 1101.855469 986.003906 1074.515625 C 1088.902344 1047.179688 1178.574219 1032.039062 1246.175781 895.753906 C 1306.464844 774.21875 1361.121094 458.585938 1378.324219 299.078125 Z M 198.777344 298.144531 " fill-opacity="1" fill-rule="nonzero"/><g clip-path="url(#01c316b4a3)"><path fill="#000000" d="M 803.757812 1104.625 C 863.492188 1104.625 926.902344 1099.289062 988.253906 1082.988281 C 994.882812 1081.226562 1001.457031 1079.519531 1007.96875 1077.820312 C 1105.117188 1052.546875 1189.011719 1030.71875 1254.03125 899.648438 C 1313.601562 779.5625 1368.613281 470.847656 1387.039062 300.019531 L 1369.613281 298.140625 C 1351.320312 467.714844 1296.949219 773.683594 1238.324219 891.863281 C 1176.863281 1015.765625 1096.550781 1036.664062 1003.558594 1060.855469 C 997.011719 1062.558594 990.410156 1064.277344 983.753906 1066.046875 C 874.976562 1094.945312 758.6875 1088.441406 669.523438 1079.546875 C 584.039062 1071.019531 494.429688 1040.535156 435.664062 999.992188 C 344.757812 937.273438 311.109375 814.628906 284.066406 716.078125 C 245.445312 575.304688 223.261719 453.96875 207.496094 297.269531 L 190.058594 299.023438 C 205.925781 456.761719 228.265625 578.9375 267.164062 720.71875 C 294.957031 822.011719 329.546875 948.074219 425.707031 1014.421875 C 486.765625 1056.546875 579.523438 1088.1875 667.785156 1096.992188 C 708.550781 1101.054688 754.929688 1104.625 803.757812 1104.625 Z M 803.757812 1104.625 " fill-opacity="1" fill-rule="nonzero"/></g><path fill="#fff8ed" d="M 198.585938 292.089844 C 198.585938 295.070312 198.824219 298.050781 199.296875 301.027344 C 199.769531 304.003906 200.480469 306.972656 201.425781 309.941406 C 202.375 312.90625 203.554688 315.863281 204.972656 318.808594 C 206.386719 321.757812 208.039062 324.691406 209.921875 327.617188 C 211.804688 330.539062 213.921875 333.445312 216.265625 336.335938 C 218.613281 339.226562 221.1875 342.097656 223.988281 344.949219 C 226.792969 347.800781 229.820312 350.628906 233.070312 353.4375 C 236.324219 356.242188 239.796875 359.023438 243.492188 361.773438 C 247.1875 364.527344 251.097656 367.253906 255.226562 369.945312 C 259.355469 372.640625 263.695312 375.300781 268.246094 377.929688 C 272.796875 380.558594 277.554688 383.148438 282.515625 385.707031 C 287.480469 388.261719 292.644531 390.777344 298.007812 393.257812 C 303.371094 395.734375 308.929688 398.171875 314.679688 400.5625 C 320.429688 402.957031 326.371094 405.304688 332.496094 407.609375 C 338.621094 409.914062 344.921875 412.167969 351.40625 414.378906 C 357.890625 416.585938 364.546875 418.742188 371.371094 420.851562 C 378.199219 422.957031 385.191406 425.011719 392.34375 427.011719 C 399.496094 429.015625 406.804688 430.960938 414.269531 432.851562 C 421.730469 434.742188 429.339844 436.574219 437.09375 438.347656 C 444.851562 440.125 452.742188 441.839844 460.769531 443.496094 C 468.796875 445.152344 476.949219 446.746094 485.230469 448.277344 C 493.511719 449.808594 501.910156 451.277344 510.425781 452.683594 C 518.941406 454.085938 527.5625 455.425781 536.289062 456.699219 C 545.015625 457.976562 553.839844 459.183594 562.761719 460.324219 C 571.679688 461.464844 580.683594 462.535156 589.773438 463.539062 C 598.867188 464.542969 608.03125 465.476562 617.269531 466.34375 C 626.507812 467.207031 635.808594 468.003906 645.175781 468.726562 C 654.539062 469.449219 663.957031 470.105469 673.425781 470.683594 C 682.894531 471.265625 692.40625 471.777344 701.957031 472.214844 C 711.503906 472.648438 721.085938 473.015625 730.691406 473.308594 C 740.300781 473.597656 749.925781 473.816406 759.570312 473.964844 C 769.210938 474.109375 778.863281 474.183594 788.515625 474.183594 C 798.171875 474.183594 807.820312 474.109375 817.460938 473.964844 C 827.105469 473.816406 836.730469 473.597656 846.339844 473.308594 C 855.949219 473.015625 865.527344 472.648438 875.078125 472.214844 C 884.628906 471.777344 894.136719 471.265625 903.605469 470.683594 C 913.074219 470.105469 922.492188 469.449219 931.859375 468.726562 C 941.222656 468.003906 950.523438 467.207031 959.765625 466.34375 C 969.003906 465.476562 978.167969 464.542969 987.257812 463.539062 C 996.347656 462.535156 1005.351562 461.464844 1014.273438 460.324219 C 1023.191406 459.183594 1032.015625 457.976562 1040.742188 456.699219 C 1049.472656 455.425781 1058.09375 454.085938 1066.605469 452.683594 C 1075.121094 451.277344 1083.519531 449.808594 1091.800781 448.277344 C 1100.082031 446.746094 1108.234375 445.152344 1116.261719 443.496094 C 1124.292969 441.839844 1132.183594 440.125 1139.9375 438.347656 C 1147.691406 436.574219 1155.300781 434.742188 1162.761719 432.851562 C 1170.226562 430.960938 1177.535156 429.015625 1184.6875 427.011719 C 1191.84375 425.011719 1198.832031 422.957031 1205.660156 420.851562 C 1212.488281 418.742188 1219.140625 416.585938 1225.625 414.378906 C 1232.109375 412.167969 1238.414062 409.914062 1244.539062 407.609375 C 1250.664062 405.304688 1256.601562 402.957031 1262.351562 400.5625 C 1268.101562 398.171875 1273.660156 395.734375 1279.023438 393.257812 C 1284.386719 390.777344 1289.550781 388.261719 1294.515625 385.707031 C 1299.480469 383.148438 1304.238281 380.558594 1308.789062 377.929688 C 1313.339844 375.300781 1317.679688 372.640625 1321.804688 369.945312 C 1325.933594 367.253906 1329.84375 364.527344 1333.539062 361.773438 C 1337.234375 359.023438 1340.707031 356.242188 1343.960938 353.4375 C 1347.214844 350.628906 1350.242188 347.800781 1353.042969 344.949219 C 1355.847656 342.097656 1358.421875 339.226562 1360.765625 336.335938 C 1363.113281 333.445312 1365.226562 330.539062 1367.109375 327.617188 C 1368.992188 324.691406 1370.644531 321.757812 1372.0625 318.808594 C 1373.476562 315.863281 1374.660156 312.90625 1375.605469 309.941406 C 1376.550781 306.972656 1377.261719 304.003906 1377.734375 301.027344 C 1378.210938 298.050781 1378.445312 295.070312 1378.445312 292.089844 C 1378.445312 289.113281 1378.210938 286.132812 1377.734375 283.15625 C 1377.261719 280.179688 1376.550781 277.210938 1375.605469 274.242188 C 1374.660156 271.277344 1373.476562 268.320312 1372.0625 265.375 C 1370.644531 262.425781 1368.992188 259.488281 1367.109375 256.566406 C 1365.226562 253.644531 1363.113281 250.738281 1360.765625 247.847656 C 1358.421875 244.957031 1355.847656 242.085938 1353.042969 239.234375 C 1350.242188 236.382812 1347.214844 233.550781 1343.960938 230.746094 C 1340.707031 227.941406 1337.234375 225.160156 1333.539062 222.40625 C 1329.84375 219.65625 1325.933594 216.929688 1321.804688 214.238281 C 1317.679688 211.542969 1313.339844 208.882812 1308.789062 206.253906 C 1304.238281 203.625 1299.480469 201.035156 1294.515625 198.476562 C 1289.550781 195.921875 1284.386719 193.40625 1279.023438 190.925781 C 1273.660156 188.449219 1268.101562 186.011719 1262.351562 183.621094 C 1256.601562 181.226562 1250.664062 178.878906 1244.539062 176.574219 C 1238.414062 174.269531 1232.109375 172.015625 1225.625 169.804688 C 1219.140625 167.597656 1212.488281 165.441406 1205.660156 163.332031 C 1198.832031 161.226562 1191.84375 159.171875 1184.6875 157.171875 C 1177.535156 155.167969 1170.226562 153.222656 1162.761719 151.332031 C 1155.300781 149.441406 1147.691406 147.609375 1139.9375 145.832031 C 1132.183594 144.058594 1124.292969 142.34375 1116.261719 140.6875 C 1108.234375 139.03125 1100.082031 137.4375 1091.800781 135.90625 C 1083.519531 134.375 1075.121094 132.90625 1066.605469 131.5 C 1058.09375 130.097656 1049.472656 128.757812 1040.742188 127.480469 C 1032.015625 126.207031 1023.191406 125 1014.273438 123.859375 C 1005.351562 122.71875 996.347656 121.648438 987.257812 120.644531 C 978.167969 119.640625 969.003906 118.707031 959.765625 117.839844 C 950.523438 116.976562 941.222656 116.179688 931.859375 115.457031 C 922.492188 114.730469 913.074219 114.078125 903.605469 113.5 C 894.136719 112.917969 884.628906 112.40625 875.078125 111.96875 C 865.527344 111.53125 855.949219 111.167969 846.339844 110.875 C 836.730469 110.585938 827.105469 110.363281 817.460938 110.21875 C 807.820312 110.074219 798.171875 110 788.515625 110 C 778.863281 110 769.210938 110.074219 759.570312 110.21875 C 749.925781 110.363281 740.300781 110.585938 730.691406 110.875 C 721.085938 111.167969 711.503906 111.53125 701.957031 111.96875 C 692.40625 112.40625 682.894531 112.917969 673.425781 113.5 C 663.957031 114.078125 654.539062 114.730469 645.175781 115.457031 C 635.808594 116.179688 626.507812 116.976562 617.269531 117.839844 C 608.03125 118.707031 598.867188 119.640625 589.773438 120.644531 C 580.683594 121.648438 571.679688 122.71875 562.761719 123.859375 C 553.839844 125 545.015625 126.207031 536.289062 127.480469 C 527.5625 128.757812 518.941406 130.097656 510.425781 131.5 C 501.910156 132.90625 493.511719 134.375 485.230469 135.90625 C 476.949219 137.4375 468.796875 139.03125 460.769531 140.6875 C 452.742188 142.34375 444.851562 144.058594 437.09375 145.832031 C 429.339844 147.609375 421.730469 149.441406 414.269531 151.332031 C 406.804688 153.222656 399.496094 155.167969 392.34375 157.171875 C 385.191406 159.171875 378.199219 161.226562 371.375 163.332031 C 364.546875 165.441406 357.890625 167.597656 351.40625 169.804688 C 344.921875 172.015625 338.621094 174.269531 332.496094 176.574219 C 326.371094 178.878906 320.429688 181.226562 314.679688 183.621094 C 308.929688 186.011719 303.371094 188.449219 298.007812 190.925781 C 292.644531 193.40625 287.480469 195.921875 282.515625 198.476562 C 277.554688 201.035156 272.796875 203.625 268.246094 206.253906 C 263.695312 208.882812 259.355469 211.542969 255.226562 214.238281 C 251.097656 216.929688 247.1875 219.65625 243.492188 222.40625 C 239.796875 225.160156 236.324219 227.941406 233.070312 230.746094 C 229.820312 233.550781 226.792969 236.382812 223.988281 239.234375 C 221.1875 242.085938 218.613281 244.957031 216.265625 247.847656 C 213.921875 250.738281 211.804688 253.644531 209.921875 256.566406 C 208.039062 259.488281 206.386719 262.425781 204.972656 265.375 C 203.554688 268.320312 202.375 271.277344 201.425781 274.242188 C 200.480469 277.210938 199.769531 280.179688 199.296875 283.15625 C 198.824219 286.132812 198.585938 289.113281 198.585938 292.089844 Z M 198.585938 292.089844 " fill-opacity="1" fill-rule="nonzero"/><g clip-path="url(#1431397d98)"><path fill="#000000" d="M 788.515625 482.949219 C 1124.234375 482.949219 1387.210938 399.113281 1387.210938 292.09375 C 1387.210938 185.070312 1124.234375 101.234375 788.515625 101.234375 C 452.800781 101.234375 189.824219 185.070312 189.824219 292.09375 C 189.824219 399.113281 452.800781 482.949219 788.515625 482.949219 Z M 788.515625 118.765625 C 1103.539062 118.765625 1369.679688 198.136719 1369.679688 292.09375 C 1369.679688 386.042969 1103.539062 465.417969 788.515625 465.417969 C 473.492188 465.417969 207.351562 386.042969 207.351562 292.09375 C 207.351562 198.136719 473.492188 118.765625 788.515625 118.765625 Z M 788.515625 118.765625 " fill-opacity="1" fill-rule="nonzero"/></g><path fill="#fff8ed" d="M 243.503906 289.703125 C 243.503906 292.183594 243.722656 294.667969 244.160156 297.148438 C 244.597656 299.628906 245.253906 302.101562 246.128906 304.574219 C 247.003906 307.046875 248.09375 309.511719 249.402344 311.964844 C 250.710938 314.421875 252.238281 316.867188 253.976562 319.304688 C 255.71875 321.742188 257.671875 324.164062 259.839844 326.570312 C 262.003906 328.980469 264.382812 331.375 266.972656 333.75 C 269.5625 336.125 272.359375 338.484375 275.363281 340.820312 C 278.367188 343.160156 281.578125 345.476562 284.992188 347.769531 C 288.40625 350.066406 292.019531 352.335938 295.832031 354.578125 C 299.644531 356.824219 303.652344 359.042969 307.859375 361.230469 C 312.0625 363.421875 316.457031 365.582031 321.042969 367.710938 C 325.628906 369.84375 330.398438 371.941406 335.355469 374.003906 C 340.3125 376.070312 345.445312 378.101562 350.757812 380.09375 C 356.070312 382.089844 361.558594 384.046875 367.214844 385.964844 C 372.875 387.886719 378.699219 389.765625 384.6875 391.605469 C 390.679688 393.445312 396.828125 395.242188 403.136719 397 C 409.441406 398.753906 415.898438 400.46875 422.507812 402.136719 C 429.117188 403.804688 435.871094 405.425781 442.765625 407 C 449.660156 408.574219 456.6875 410.101562 463.851562 411.582031 C 471.015625 413.0625 478.308594 414.492188 485.722656 415.871094 C 493.140625 417.25 500.675781 418.578125 508.324219 419.855469 C 515.976562 421.132812 523.734375 422.355469 531.597656 423.527344 C 539.464844 424.695312 547.429688 425.8125 555.492188 426.875 C 563.558594 427.9375 571.707031 428.941406 579.949219 429.894531 C 588.191406 430.84375 596.507812 431.738281 604.90625 432.574219 C 613.304688 433.410156 621.773438 434.1875 630.308594 434.910156 C 638.84375 435.632812 647.4375 436.292969 656.089844 436.898438 C 664.742188 437.5 673.441406 438.042969 682.191406 438.527344 C 690.9375 439.011719 699.722656 439.4375 708.546875 439.800781 C 717.371094 440.167969 726.21875 440.46875 735.097656 440.714844 C 743.972656 440.957031 752.863281 441.140625 761.773438 441.261719 C 770.683594 441.382812 779.597656 441.445312 788.515625 441.445312 C 797.4375 441.445312 806.351562 441.382812 815.257812 441.261719 C 824.167969 441.140625 833.058594 440.957031 841.9375 440.714844 C 850.8125 440.46875 859.664062 440.167969 868.484375 439.800781 C 877.308594 439.4375 886.09375 439.011719 894.84375 438.527344 C 903.589844 438.042969 912.292969 437.5 920.941406 436.898438 C 929.59375 436.292969 938.1875 435.632812 946.726562 434.910156 C 955.261719 434.1875 963.726562 433.410156 972.125 432.574219 C 980.523438 431.738281 988.84375 430.84375 997.082031 429.894531 C 1005.324219 428.941406 1013.476562 427.9375 1021.539062 426.875 C 1029.601562 425.8125 1037.566406 424.695312 1045.433594 423.527344 C 1053.300781 422.355469 1061.058594 421.132812 1068.707031 419.855469 C 1076.359375 418.578125 1083.890625 417.25 1091.308594 415.871094 C 1098.726562 414.492188 1106.015625 413.0625 1113.179688 411.582031 C 1120.34375 410.101562 1127.375 408.574219 1134.269531 407 C 1141.164062 405.425781 1147.914062 403.804688 1154.523438 402.136719 C 1161.132812 400.46875 1167.589844 398.753906 1173.898438 397 C 1180.203125 395.242188 1186.351562 393.445312 1192.34375 391.605469 C 1198.332031 389.765625 1204.15625 387.886719 1209.816406 385.964844 C 1215.472656 384.046875 1220.960938 382.089844 1226.273438 380.09375 C 1231.585938 378.101562 1236.722656 376.070312 1241.675781 374.003906 C 1246.632812 371.941406 1251.402344 369.84375 1255.988281 367.710938 C 1260.574219 365.582031 1264.96875 363.421875 1269.171875 361.230469 C 1273.378906 359.042969 1277.386719 356.824219 1281.199219 354.578125 C 1285.015625 352.335938 1288.628906 350.066406 1292.042969 347.769531 C 1295.453125 345.476562 1298.664062 343.160156 1301.667969 340.820312 C 1304.671875 338.484375 1307.472656 336.125 1310.058594 333.75 C 1312.648438 331.375 1315.027344 328.980469 1317.195312 326.570312 C 1319.363281 324.164062 1321.316406 321.742188 1323.054688 319.304688 C 1324.796875 316.867188 1326.320312 314.421875 1327.628906 311.964844 C 1328.9375 309.511719 1330.03125 307.046875 1330.902344 304.574219 C 1331.777344 302.101562 1332.433594 299.628906 1332.871094 297.148438 C 1333.308594 294.667969 1333.527344 292.183594 1333.527344 289.703125 C 1333.527344 287.21875 1333.308594 284.734375 1332.871094 282.253906 C 1332.433594 279.773438 1331.777344 277.300781 1330.902344 274.828125 C 1330.03125 272.355469 1328.9375 269.890625 1327.628906 267.4375 C 1326.320312 264.980469 1324.796875 262.535156 1323.054688 260.097656 C 1321.316406 257.660156 1319.363281 255.238281 1317.195312 252.832031 C 1315.027344 250.421875 1312.648438 248.027344 1310.058594 245.652344 C 1307.472656 243.277344 1304.671875 240.917969 1301.667969 238.582031 C 1298.664062 236.242188 1295.453125 233.925781 1292.042969 231.632812 C 1288.628906 229.335938 1285.015625 227.066406 1281.199219 224.824219 C 1277.386719 222.578125 1273.378906 220.359375 1269.171875 218.171875 C 1264.96875 215.980469 1260.574219 213.820312 1255.988281 211.691406 C 1251.402344 209.558594 1246.632812 207.460938 1241.675781 205.398438 C 1236.722656 203.332031 1231.585938 201.300781 1226.273438 199.308594 C 1220.960938 197.3125 1215.472656 195.355469 1209.816406 193.4375 C 1204.15625 191.515625 1198.332031 189.636719 1192.34375 187.796875 C 1186.351562 185.957031 1180.203125 184.160156 1173.898438 182.402344 C 1167.589844 180.648438 1161.132812 178.933594 1154.523438 177.265625 C 1147.914062 175.597656 1141.164062 173.976562 1134.269531 172.402344 C 1127.375 170.828125 1120.34375 169.300781 1113.179688 167.820312 C 1106.015625 166.339844 1098.726562 164.910156 1091.308594 163.53125 C 1083.890625 162.152344 1076.359375 160.824219 1068.707031 159.546875 C 1061.058594 158.269531 1053.300781 157.046875 1045.433594 155.875 C 1037.566406 154.707031 1029.601562 153.589844 1021.539062 152.527344 C 1013.476562 151.464844 1005.324219 150.460938 997.082031 149.507812 C 988.84375 148.558594 980.523438 147.664062 972.125 146.828125 C 963.726562 145.992188 955.261719 145.214844 946.726562 144.492188 C 938.1875 143.769531 929.59375 143.109375 920.941406 142.503906 C 912.292969 141.902344 903.589844 141.359375 894.84375 140.875 C 886.09375 140.390625 877.308594 139.964844 868.484375 139.601562 C 859.664062 139.234375 850.8125 138.933594 841.9375 138.6875 C 833.058594 138.445312 824.167969 138.261719 815.257812 138.140625 C 806.351562 138.019531 797.4375 137.957031 788.515625 137.957031 C 779.597656 137.957031 770.683594 138.019531 761.773438 138.140625 C 752.863281 138.261719 743.972656 138.445312 735.097656 138.6875 C 726.21875 138.933594 717.371094 139.234375 708.546875 139.601562 C 699.722656 139.964844 690.9375 140.390625 682.191406 140.875 C 673.441406 141.359375 664.742188 141.902344 656.089844 142.503906 C 647.4375 143.109375 638.84375 143.769531 630.308594 144.492188 C 621.773438 145.214844 613.304688 145.992188 604.90625 146.828125 C 596.507812 147.664062 588.191406 148.558594 579.949219 149.507812 C 571.707031 150.460938 563.558594 151.464844 555.492188 152.527344 C 547.429688 153.589844 539.464844 154.707031 531.597656 155.875 C 523.734375 157.046875 515.976562 158.269531 508.324219 159.546875 C 500.671875 160.824219 493.140625 162.152344 485.722656 163.53125 C 478.308594 164.910156 471.015625 166.339844 463.851562 167.820312 C 456.6875 169.300781 449.660156 170.828125 442.765625 172.402344 C 435.871094 173.976562 429.117188 175.597656 422.507812 177.265625 C 415.898438 178.933594 409.441406 180.648438 403.136719 182.402344 C 396.828125 184.160156 390.679688 185.957031 384.6875 187.796875 C 378.699219 189.636719 372.875 191.515625 367.214844 193.4375 C 361.558594 195.355469 356.070312 197.3125 350.757812 199.308594 C 345.445312 201.300781 340.3125 203.332031 335.355469 205.398438 C 330.398438 207.460938 325.628906 209.558594 321.042969 211.691406 C 316.457031 213.820312 312.0625 215.980469 307.859375 218.171875 C 303.652344 220.359375 299.644531 222.578125 295.832031 224.824219 C 292.019531 227.066406 288.40625 229.335938 284.992188 231.632812 C 281.578125 233.925781 278.367188 236.242188 275.363281 238.582031 C 272.359375 240.917969 269.5625 243.277344 266.972656 245.652344 C 264.382812 248.027344 262.003906 250.421875 259.839844 252.832031 C 257.671875 255.238281 255.71875 257.660156 253.976562 260.097656 C 252.238281 262.535156 250.710938 264.980469 249.402344 267.4375 C 248.09375 269.890625 247.003906 272.355469 246.128906 274.828125 C 245.253906 277.300781 244.597656 279.773438 244.160156 282.253906 C 243.722656 284.734375 243.503906 287.21875 243.503906 289.703125 Z M 243.503906 289.703125 " fill-opacity="1" fill-rule="nonzero"/><path fill="#000000" d="M 788.515625 450.210938 C 934.867188 450.210938 1072.566406 434.3125 1176.246094 405.441406 C 1251.996094 384.351562 1342.292969 347.152344 1342.292969 289.699219 C 1342.292969 232.25 1251.996094 195.050781 1176.246094 173.960938 C 1072.566406 145.089844 934.867188 129.195312 788.515625 129.195312 C 642.167969 129.195312 504.464844 145.089844 400.785156 173.960938 C 325.035156 195.050781 234.738281 232.25 234.738281 289.699219 C 234.738281 347.152344 325.035156 384.351562 400.785156 405.441406 C 504.464844 434.3125 642.167969 450.210938 788.515625 450.210938 Z M 788.515625 146.722656 C 1109.285156 146.722656 1324.761719 220.652344 1324.761719 289.699219 C 1324.761719 358.75 1109.285156 432.679688 788.515625 432.679688 C 467.746094 432.679688 252.269531 358.75 252.269531 289.699219 C 252.269531 220.652344 467.746094 146.722656 788.515625 146.722656 Z M 788.515625 146.722656 " fill-opacity="1" fill-rule="nonzero"/><path fill="#000000" d="M 462.5625 412.328125 C 487.996094 314.859375 537.167969 197.007812 596.019531 114.976562 C 600.097656 79.585938 609.292969 44.789062 623.230469 12.003906 C 624.765625 8.390625 626.511719 4.613281 629.753906 2.398438 C 634.273438 -0.683594 640.613281 0.21875 645.226562 3.160156 C 649.839844 6.105469 653.09375 10.714844 656.152344 15.25 C 674.203125 42.035156 689.761719 70.496094 702.1875 100.542969 C 764.40625 95.34375 827.09375 95.699219 889.707031 102.636719 C 912.210938 73.511719 934.828125 44.261719 961.53125 18.929688 C 968.199219 12.605469 978.007812 6.191406 985.808594 11.058594 C 990.292969 13.855469 992.074219 19.402344 993.394531 24.519531 C 1002.140625 58.421875 1005.136719 93.796875 1000.519531 133.292969 C 1016.667969 180.214844 1032.34375 227.960938 1035.765625 277.460938 C 1039.191406 326.964844 1029.171875 379.125 997.890625 420.507812 C 1048.753906 488.316406 1050.429688 580.328125 1043.652344 664.824219 C 1042.007812 685.316406 1036.871094 709.980469 1017.421875 716.644531 C 1006.371094 720.429688 993.71875 716.507812 984.835938 708.925781 C 975.949219 701.34375 970.328125 690.609375 966.308594 679.640625 C 954.324219 646.933594 954.964844 610.960938 946.109375 577.269531 C 934.445312 532.917969 899.398438 471.867188 870.367188 433.648438 C 802.535156 435.023438 739.667969 443.195312 677.171875 436.171875 C 706.34375 504.175781 714.429688 593.429688 695.207031 664.886719 C 690.960938 680.664062 683.355469 698.300781 667.582031 702.550781 C 650.25 707.222656 633.398438 692.546875 625.144531 676.605469 C 604.871094 637.460938 614.445312 589.660156 603.519531 546.957031 C 598.210938 526.207031 588.136719 507.023438 577.621094 488.367188 C 559.351562 455.957031 549.605469 452.292969 527.011719 421.507812 C 511.445312 420.171875 480.769531 415.476562 462.5625 412.328125 Z M 462.5625 412.328125 " fill-opacity="1" fill-rule="nonzero"/><path fill="#fff8ed" d="M 645.089844 37.253906 C 654.800781 49.894531 663.058594 63.753906 668.082031 78.945312 C 669.796875 83.9375 671.1875 89.035156 672.316406 94.191406 C 672.460938 94.855469 672.324219 95.566406 671.953125 96.132812 C 669.628906 98.800781 667.125 96.503906 666.957031 93.574219 C 663.792969 79.953125 659.558594 69.101562 652.21875 56.484375 C 648.351562 49.710938 645.292969 46.171875 640.976562 39.703125 C 639.964844 37.308594 643.425781 35.25 645.089844 37.253906 Z M 645.089844 37.253906 " fill-opacity="1" fill-rule="nonzero"/><path fill="#fff8ed" d="M 926.328125 100.304688 C 935.199219 84.613281 946.464844 70.402344 958.617188 57.132812 C 960.335938 55.246094 962.042969 53.347656 963.738281 51.4375 C 964.199219 50.976562 964.839844 50.710938 965.492188 50.710938 C 967.621094 50.644531 968.808594 53.480469 967.246094 54.949219 C 952.539062 70.734375 941.320312 85.25 930.214844 103.71875 C 928.085938 105.558594 924.820312 102.683594 926.328125 100.304688 Z M 926.328125 100.304688 " fill-opacity="1" fill-rule="nonzero"/><path fill="#fff8ed" d="M 809.273438 325.796875 C 814.09375 325.832031 820.179688 325.078125 824.203125 328.148438 C 826.558594 331.296875 823.449219 334.082031 820.464844 336.316406 C 820.171875 336.65625 819.878906 336.996094 819.613281 337.347656 C 818.191406 339.03125 816.667969 340.8125 814.53125 341.5625 C 812.320312 342.304688 810.390625 340.777344 808.804688 339.417969 C 806.292969 337.246094 803.445312 335.273438 801.695312 332.394531 C 799.109375 326.675781 805.074219 325.957031 809.273438 325.796875 Z M 809.273438 325.796875 " fill-opacity="1" fill-rule="nonzero"/><path fill="#fff8ed" d="M 899.261719 227.199219 C 898.066406 227.476562 896.878906 227.785156 895.703125 228.121094 C 894.523438 228.457031 893.351562 228.824219 892.191406 229.214844 C 891.03125 229.609375 889.878906 230.035156 888.738281 230.484375 C 887.597656 230.933594 886.46875 231.414062 885.351562 231.917969 C 884.234375 232.425781 883.132812 232.957031 882.042969 233.519531 C 880.949219 234.078125 879.875 234.664062 878.8125 235.277344 C 877.75 235.890625 876.703125 236.53125 875.671875 237.195312 C 874.644531 237.859375 873.628906 238.550781 872.632812 239.265625 C 871.636719 239.976562 870.65625 240.714844 869.699219 241.480469 C 868.738281 242.242188 867.796875 243.027344 866.875 243.835938 C 865.953125 244.644531 865.050781 245.472656 864.167969 246.328125 C 863.289062 247.179688 862.429688 248.054688 861.589844 248.949219 C 860.753906 249.84375 859.9375 250.757812 859.144531 251.695312 C 858.351562 252.628906 857.578125 253.582031 856.832031 254.554688 C 856.085938 255.527344 855.363281 256.519531 854.667969 257.527344 C 853.96875 258.535156 853.296875 259.5625 852.648438 260.601562 C 852 261.644531 851.378906 262.699219 850.785156 263.773438 C 850.1875 264.84375 849.621094 265.929688 849.078125 267.03125 C 848.535156 268.128906 848.019531 269.242188 847.53125 270.367188 C 847.046875 271.492188 846.585938 272.628906 846.152344 273.777344 C 845.722656 274.921875 845.316406 276.082031 844.941406 277.25 C 844.566406 278.417969 844.222656 279.59375 843.90625 280.777344 C 843.585938 281.960938 843.300781 283.152344 843.039062 284.351562 C 842.78125 285.550781 842.550781 286.753906 842.351562 287.964844 C 842.152344 289.171875 841.984375 290.386719 841.84375 291.605469 C 841.703125 292.824219 841.59375 294.042969 841.511719 295.269531 C 841.433594 296.492188 841.382812 297.71875 841.363281 298.941406 C 841.34375 300.167969 841.351562 301.394531 841.394531 302.621094 C 841.433594 303.847656 841.503906 305.070312 841.601562 306.292969 C 841.703125 307.515625 841.832031 308.734375 841.992188 309.949219 C 842.152344 311.164062 842.34375 312.375 842.5625 313.582031 C 842.78125 314.789062 843.03125 315.988281 843.308594 317.183594 C 843.589844 318.375 843.898438 319.5625 844.234375 320.742188 C 844.570312 321.921875 844.9375 323.089844 845.328125 324.253906 C 845.722656 325.414062 846.148438 326.566406 846.597656 327.707031 C 847.046875 328.84375 847.527344 329.972656 848.03125 331.089844 C 848.539062 332.207031 849.070312 333.3125 849.632812 334.402344 C 850.191406 335.492188 850.777344 336.570312 851.390625 337.632812 C 852.003906 338.695312 852.644531 339.738281 853.308594 340.769531 C 853.972656 341.800781 854.664062 342.8125 855.378906 343.8125 C 856.089844 344.808594 856.828125 345.785156 857.59375 346.746094 C 858.355469 347.707031 859.140625 348.648438 859.949219 349.570312 C 860.757812 350.492188 861.585938 351.394531 862.441406 352.273438 C 863.292969 353.15625 864.167969 354.015625 865.0625 354.855469 C 865.957031 355.691406 866.871094 356.507812 867.808594 357.300781 C 868.742188 358.09375 869.695312 358.863281 870.667969 359.609375 C 871.640625 360.355469 872.632812 361.078125 873.640625 361.777344 C 874.648438 362.472656 875.675781 363.148438 876.714844 363.792969 C 877.757812 364.441406 878.8125 365.0625 879.886719 365.660156 C 880.957031 366.253906 882.042969 366.824219 883.144531 367.367188 C 884.242188 367.910156 885.355469 368.421875 886.480469 368.910156 C 887.605469 369.398438 888.742188 369.859375 889.890625 370.289062 C 891.035156 370.722656 892.195312 371.125 893.363281 371.5 C 894.53125 371.875 895.707031 372.222656 896.890625 372.539062 C 898.074219 372.855469 899.265625 373.144531 900.464844 373.402344 C 901.664062 373.664062 902.867188 373.890625 904.078125 374.089844 C 905.285156 374.292969 906.5 374.460938 907.71875 374.601562 C 908.9375 374.742188 910.15625 374.851562 911.382812 374.929688 C 912.605469 375.011719 913.832031 375.0625 915.054688 375.082031 C 916.28125 375.101562 917.507812 375.089844 918.734375 375.050781 C 919.960938 375.011719 921.183594 374.941406 922.40625 374.839844 C 923.628906 374.742188 924.847656 374.609375 926.0625 374.449219 C 927.277344 374.289062 928.488281 374.101562 929.695312 373.878906 C 930.902344 373.660156 932.101562 373.410156 933.296875 373.132812 C 934.488281 372.855469 935.675781 372.546875 936.855469 372.210938 C 938.035156 371.875 939.203125 371.507812 940.367188 371.113281 C 941.527344 370.71875 942.679688 370.296875 943.820312 369.847656 C 944.957031 369.394531 946.085938 368.917969 947.203125 368.410156 C 948.320312 367.90625 949.425781 367.371094 950.515625 366.8125 C 951.605469 366.25 952.683594 365.664062 953.746094 365.050781 C 954.804688 364.4375 955.851562 363.800781 956.882812 363.136719 C 957.914062 362.46875 958.925781 361.78125 959.925781 361.066406 C 960.921875 360.351562 961.898438 359.613281 962.859375 358.851562 C 963.820312 358.089844 964.761719 357.304688 965.683594 356.496094 C 966.605469 355.6875 967.507812 354.855469 968.386719 354.003906 C 969.269531 353.152344 970.128906 352.277344 970.96875 351.382812 C 971.804688 350.488281 972.621094 349.570312 973.414062 348.636719 C 974.207031 347.703125 974.976562 346.746094 975.722656 345.773438 C 976.46875 344.800781 977.191406 343.8125 977.890625 342.804688 C 978.585938 341.792969 979.261719 340.769531 979.90625 339.726562 C 980.554688 338.6875 981.175781 337.628906 981.773438 336.558594 C 982.367188 335.488281 982.9375 334.402344 983.480469 333.300781 C 984.023438 332.203125 984.535156 331.089844 985.023438 329.964844 C 985.511719 328.839844 985.972656 327.703125 986.402344 326.554688 C 986.835938 325.40625 987.238281 324.25 987.613281 323.082031 C 987.988281 321.914062 988.335938 320.738281 988.652344 319.554688 C 988.96875 318.371094 989.257812 317.179688 989.515625 315.980469 C 989.777344 314.78125 990.003906 313.578125 990.203125 312.367188 C 990.402344 311.15625 990.574219 309.941406 990.714844 308.726562 C 990.855469 307.507812 990.964844 306.285156 991.042969 305.0625 C 991.125 303.839844 991.175781 302.613281 991.195312 301.386719 C 991.214844 300.160156 991.203125 298.9375 991.164062 297.710938 C 991.125 296.484375 991.054688 295.261719 990.953125 294.039062 C 990.851562 292.816406 990.722656 291.597656 990.5625 290.382812 C 990.402344 289.167969 990.214844 287.957031 989.992188 286.75 C 989.773438 285.542969 989.523438 284.34375 989.246094 283.148438 C 988.96875 281.953125 988.660156 280.765625 988.324219 279.589844 C 987.988281 278.410156 987.621094 277.238281 987.226562 276.078125 C 986.832031 274.917969 986.410156 273.765625 985.960938 272.625 C 985.507812 271.484375 985.03125 270.355469 984.523438 269.238281 C 984.019531 268.121094 983.484375 267.019531 982.925781 265.929688 C 982.363281 264.835938 981.777344 263.761719 981.164062 262.699219 C 980.550781 261.636719 979.914062 260.589844 979.25 259.558594 C 978.582031 258.53125 977.894531 257.515625 977.179688 256.519531 C 976.464844 255.523438 975.726562 254.542969 974.964844 253.582031 C 974.203125 252.625 973.417969 251.683594 972.609375 250.761719 C 971.800781 249.839844 970.96875 248.9375 970.117188 248.054688 C 969.265625 247.175781 968.390625 246.316406 967.496094 245.476562 C 966.601562 244.640625 965.683594 243.824219 964.75 243.03125 C 963.816406 242.238281 962.859375 241.464844 961.886719 240.71875 C 960.914062 239.972656 959.925781 239.25 958.917969 238.554688 C 957.90625 237.855469 956.882812 237.183594 955.839844 236.535156 C 954.800781 235.886719 953.742188 235.265625 952.671875 234.671875 C 951.601562 234.074219 950.515625 233.507812 949.414062 232.964844 C 948.316406 232.421875 947.203125 231.90625 946.078125 231.417969 C 944.953125 230.933594 943.816406 230.472656 942.667969 230.039062 C 941.519531 229.609375 940.363281 229.203125 939.195312 228.828125 C 938.027344 228.453125 936.851562 228.109375 935.667969 227.792969 C 934.484375 227.472656 933.292969 227.1875 932.09375 226.925781 C 930.894531 226.667969 929.691406 226.4375 928.480469 226.238281 C 927.269531 226.039062 926.054688 225.871094 924.839844 225.730469 C 923.621094 225.589844 922.398438 225.480469 921.175781 225.398438 C 919.953125 225.320312 918.726562 225.269531 917.5 225.25 C 916.273438 225.230469 915.050781 225.238281 913.824219 225.28125 C 912.597656 225.320312 911.375 225.390625 910.152344 225.488281 C 908.929688 225.589844 907.710938 225.71875 906.496094 225.878906 C 905.28125 226.039062 904.070312 226.230469 902.863281 226.449219 C 901.65625 226.667969 900.457031 226.917969 899.261719 227.199219 Z M 899.261719 227.199219 " fill-opacity="1" fill-rule="nonzero"/><path fill="#000000" d="M 856.054688 300.164062 C 856.054688 302.136719 856.152344 304.105469 856.34375 306.066406 C 856.539062 308.03125 856.828125 309.980469 857.210938 311.914062 C 857.597656 313.847656 858.078125 315.757812 858.648438 317.648438 C 859.222656 319.535156 859.886719 321.390625 860.640625 323.210938 C 861.394531 325.035156 862.238281 326.816406 863.167969 328.554688 C 864.097656 330.292969 865.109375 331.984375 866.203125 333.625 C 867.300781 335.261719 868.472656 336.847656 869.726562 338.371094 C 870.976562 339.894531 872.300781 341.355469 873.695312 342.75 C 875.089844 344.144531 876.550781 345.46875 878.074219 346.71875 C 879.597656 347.96875 881.179688 349.144531 882.820312 350.238281 C 884.460938 351.335938 886.148438 352.347656 887.890625 353.277344 C 889.628906 354.207031 891.410156 355.050781 893.230469 355.804688 C 895.054688 356.558594 896.910156 357.222656 898.796875 357.796875 C 900.683594 358.367188 902.59375 358.847656 904.53125 359.230469 C 906.464844 359.617188 908.414062 359.90625 910.375 360.097656 C 912.339844 360.292969 914.304688 360.386719 916.277344 360.386719 C 918.25 360.386719 920.21875 360.292969 922.179688 360.097656 C 924.144531 359.90625 926.09375 359.617188 928.027344 359.230469 C 929.960938 358.847656 931.871094 358.367188 933.761719 357.796875 C 935.648438 357.222656 937.503906 356.558594 939.324219 355.804688 C 941.148438 355.050781 942.929688 354.207031 944.667969 353.277344 C 946.40625 352.347656 948.097656 351.335938 949.738281 350.238281 C 951.375 349.144531 952.960938 347.96875 954.484375 346.71875 C 956.007812 345.46875 957.46875 344.144531 958.863281 342.75 C 960.257812 341.355469 961.582031 339.894531 962.832031 338.371094 C 964.082031 336.847656 965.257812 335.261719 966.351562 333.625 C 967.449219 331.984375 968.460938 330.292969 969.390625 328.554688 C 970.320312 326.816406 971.164062 325.035156 971.917969 323.210938 C 972.671875 321.390625 973.335938 319.535156 973.910156 317.648438 C 974.480469 315.757812 974.960938 313.847656 975.34375 311.914062 C 975.730469 309.980469 976.019531 308.03125 976.210938 306.066406 C 976.40625 304.105469 976.5 302.136719 976.5 300.164062 C 976.5 298.191406 976.40625 296.226562 976.210938 294.261719 C 976.019531 292.300781 975.730469 290.351562 975.34375 288.417969 C 974.960938 286.480469 974.480469 284.570312 973.910156 282.683594 C 973.335938 280.796875 972.671875 278.941406 971.917969 277.117188 C 971.164062 275.296875 970.320312 273.515625 969.390625 271.777344 C 968.460938 270.035156 967.449219 268.347656 966.351562 266.707031 C 965.257812 265.066406 964.082031 263.484375 962.832031 261.960938 C 961.582031 260.4375 960.257812 258.976562 958.863281 257.582031 C 957.46875 256.1875 956.007812 254.863281 954.484375 253.613281 C 952.960938 252.359375 951.375 251.1875 949.738281 250.089844 C 948.097656 248.996094 946.40625 247.984375 944.667969 247.054688 C 942.929688 246.125 941.148438 245.28125 939.324219 244.527344 C 937.503906 243.773438 935.648438 243.109375 933.761719 242.535156 C 931.871094 241.960938 929.960938 241.484375 928.027344 241.097656 C 926.09375 240.714844 924.144531 240.425781 922.179688 240.230469 C 920.21875 240.039062 918.25 239.941406 916.277344 239.941406 C 914.304688 239.941406 912.339844 240.039062 910.375 240.230469 C 908.414062 240.425781 906.464844 240.714844 904.53125 241.097656 C 902.59375 241.484375 900.683594 241.960938 898.796875 242.535156 C 896.910156 243.109375 895.054688 243.773438 893.230469 244.527344 C 891.410156 245.28125 889.628906 246.125 887.890625 247.054688 C 886.148438 247.984375 884.460938 248.996094 882.820312 250.089844 C 881.179688 251.1875 879.597656 252.359375 878.074219 253.613281 C 876.550781 254.863281 875.089844 256.1875 873.695312 257.582031 C 872.300781 258.976562 870.976562 260.4375 869.726562 261.960938 C 868.472656 263.484375 867.300781 265.066406 866.203125 266.707031 C 865.109375 268.347656 864.097656 270.035156 863.167969 271.777344 C 862.238281 273.515625 861.394531 275.296875 860.640625 277.117188 C 859.886719 278.941406 859.222656 280.796875 858.648438 282.683594 C 858.078125 284.570312 857.597656 286.480469 857.210938 288.417969 C 856.828125 290.351562 856.539062 292.300781 856.34375 294.261719 C 856.152344 296.226562 856.054688 298.191406 856.054688 300.164062 Z M 856.054688 300.164062 " fill-opacity="1" fill-rule="nonzero"/><path fill="#fff8ed" d="M 625.414062 297.933594 C 625.414062 299.183594 625.445312 300.433594 625.503906 301.679688 C 625.566406 302.925781 625.65625 304.171875 625.78125 305.414062 C 625.902344 306.660156 626.054688 307.898438 626.238281 309.132812 C 626.421875 310.367188 626.636719 311.597656 626.878906 312.824219 C 627.125 314.046875 627.398438 315.265625 627.699219 316.476562 C 628.003906 317.691406 628.335938 318.894531 628.699219 320.089844 C 629.0625 321.285156 629.453125 322.46875 629.875 323.644531 C 630.296875 324.820312 630.746094 325.984375 631.222656 327.140625 C 631.699219 328.292969 632.207031 329.433594 632.738281 330.5625 C 633.273438 331.691406 633.835938 332.808594 634.425781 333.910156 C 635.011719 335.011719 635.628906 336.097656 636.269531 337.167969 C 636.914062 338.242188 637.582031 339.296875 638.273438 340.332031 C 638.96875 341.371094 639.6875 342.394531 640.429688 343.394531 C 641.175781 344.398438 641.945312 345.382812 642.734375 346.347656 C 643.527344 347.316406 644.34375 348.261719 645.183594 349.183594 C 646.019531 350.109375 646.882812 351.015625 647.765625 351.898438 C 648.648438 352.78125 649.554688 353.640625 650.476562 354.480469 C 651.402344 355.320312 652.347656 356.136719 653.316406 356.929688 C 654.28125 357.71875 655.265625 358.488281 656.269531 359.230469 C 657.269531 359.976562 658.292969 360.695312 659.328125 361.390625 C 660.367188 362.082031 661.421875 362.75 662.496094 363.394531 C 663.566406 364.035156 664.652344 364.652344 665.753906 365.238281 C 666.855469 365.828125 667.96875 366.390625 669.097656 366.921875 C 670.230469 367.457031 671.371094 367.964844 672.523438 368.441406 C 673.679688 368.917969 674.84375 369.367188 676.019531 369.789062 C 677.195312 370.210938 678.378906 370.601562 679.574219 370.964844 C 680.769531 371.328125 681.972656 371.660156 683.1875 371.964844 C 684.398438 372.265625 685.617188 372.539062 686.839844 372.785156 C 688.066406 373.027344 689.296875 373.242188 690.53125 373.425781 C 691.765625 373.609375 693.003906 373.761719 694.25 373.882812 C 695.492188 374.003906 696.738281 374.097656 697.984375 374.160156 C 699.230469 374.21875 700.480469 374.25 701.730469 374.25 C 702.976562 374.25 704.226562 374.21875 705.472656 374.160156 C 706.722656 374.097656 707.964844 374.003906 709.207031 373.882812 C 710.453125 373.761719 711.691406 373.609375 712.925781 373.425781 C 714.160156 373.242188 715.390625 373.027344 716.617188 372.785156 C 717.84375 372.539062 719.058594 372.265625 720.273438 371.964844 C 721.484375 371.660156 722.6875 371.328125 723.882812 370.964844 C 725.078125 370.601562 726.261719 370.210938 727.4375 369.789062 C 728.613281 369.367188 729.78125 368.917969 730.933594 368.441406 C 732.085938 367.964844 733.230469 367.457031 734.359375 366.921875 C 735.488281 366.390625 736.601562 365.828125 737.703125 365.238281 C 738.804688 364.652344 739.890625 364.035156 740.964844 363.394531 C 742.035156 362.75 743.089844 362.082031 744.128906 361.390625 C 745.167969 360.695312 746.1875 359.976562 747.191406 359.230469 C 748.191406 358.488281 749.175781 357.71875 750.144531 356.929688 C 751.109375 356.136719 752.054688 355.320312 752.980469 354.480469 C 753.90625 353.640625 754.808594 352.78125 755.691406 351.898438 C 756.574219 351.015625 757.4375 350.109375 758.273438 349.183594 C 759.113281 348.261719 759.929688 347.316406 760.722656 346.347656 C 761.515625 345.382812 762.28125 344.398438 763.027344 343.394531 C 763.769531 342.394531 764.488281 341.371094 765.183594 340.332031 C 765.875 339.296875 766.546875 338.242188 767.1875 337.167969 C 767.828125 336.097656 768.445312 335.011719 769.035156 333.910156 C 769.621094 332.808594 770.183594 331.691406 770.71875 330.5625 C 771.25 329.433594 771.757812 328.292969 772.234375 327.140625 C 772.714844 325.984375 773.164062 324.820312 773.582031 323.644531 C 774.003906 322.46875 774.394531 321.285156 774.757812 320.089844 C 775.121094 318.894531 775.453125 317.691406 775.757812 316.476562 C 776.0625 315.265625 776.335938 314.046875 776.578125 312.824219 C 776.820312 311.597656 777.035156 310.367188 777.21875 309.132812 C 777.402344 307.898438 777.554688 306.660156 777.675781 305.414062 C 777.800781 304.171875 777.890625 302.925781 777.953125 301.679688 C 778.015625 300.433594 778.042969 299.183594 778.042969 297.933594 C 778.042969 296.6875 778.015625 295.4375 777.953125 294.191406 C 777.890625 292.941406 777.800781 291.699219 777.675781 290.453125 C 777.554688 289.210938 777.402344 287.972656 777.21875 286.738281 C 777.035156 285.5 776.820312 284.269531 776.578125 283.046875 C 776.335938 281.820312 776.0625 280.601562 775.757812 279.390625 C 775.453125 278.179688 775.121094 276.976562 774.757812 275.78125 C 774.394531 274.585938 774.003906 273.402344 773.582031 272.226562 C 773.164062 271.050781 772.714844 269.882812 772.234375 268.730469 C 771.757812 267.578125 771.25 266.433594 770.71875 265.304688 C 770.183594 264.175781 769.621094 263.0625 769.035156 261.960938 C 768.445312 260.859375 767.828125 259.773438 767.1875 258.699219 C 766.542969 257.628906 765.875 256.574219 765.183594 255.535156 C 764.488281 254.496094 763.769531 253.476562 763.027344 252.472656 C 762.28125 251.46875 761.515625 250.484375 760.722656 249.519531 C 759.929688 248.554688 759.113281 247.609375 758.273438 246.683594 C 757.4375 245.757812 756.574219 244.855469 755.691406 243.972656 C 754.808594 243.089844 753.90625 242.226562 752.980469 241.390625 C 752.054688 240.550781 751.109375 239.734375 750.144531 238.941406 C 749.175781 238.148438 748.191406 237.382812 747.191406 236.636719 C 746.1875 235.894531 745.167969 235.175781 744.128906 234.480469 C 743.089844 233.785156 742.035156 233.117188 740.964844 232.476562 C 739.890625 231.835938 738.804688 231.21875 737.703125 230.628906 C 736.601562 230.042969 735.488281 229.480469 734.359375 228.945312 C 733.230469 228.414062 732.085938 227.90625 730.933594 227.429688 C 729.78125 226.949219 728.613281 226.5 727.4375 226.082031 C 726.261719 225.660156 725.078125 225.269531 723.882812 224.90625 C 722.6875 224.542969 721.484375 224.210938 720.273438 223.90625 C 719.058594 223.601562 717.84375 223.328125 716.617188 223.085938 C 715.390625 222.84375 714.160156 222.628906 712.925781 222.445312 C 711.691406 222.261719 710.453125 222.109375 709.207031 221.988281 C 707.964844 221.863281 706.722656 221.773438 705.472656 221.710938 C 704.226562 221.648438 702.976562 221.621094 701.730469 221.621094 C 700.480469 221.621094 699.230469 221.648438 697.984375 221.710938 C 696.738281 221.773438 695.492188 221.863281 694.25 221.988281 C 693.003906 222.109375 691.765625 222.261719 690.53125 222.445312 C 689.296875 222.628906 688.066406 222.84375 686.839844 223.085938 C 685.617188 223.328125 684.398438 223.601562 683.1875 223.90625 C 681.972656 224.210938 680.769531 224.542969 679.574219 224.90625 C 678.378906 225.269531 677.195312 225.660156 676.019531 226.082031 C 674.84375 226.5 673.679688 226.949219 672.523438 227.429688 C 671.371094 227.90625 670.230469 228.414062 669.101562 228.945312 C 667.96875 229.480469 666.855469 230.042969 665.753906 230.628906 C 664.652344 231.21875 663.566406 231.835938 662.496094 232.476562 C 661.421875 233.117188 660.367188 233.785156 659.332031 234.480469 C 658.292969 235.175781 657.269531 235.894531 656.269531 236.636719 C 655.265625 237.382812 654.28125 238.148438 653.316406 238.941406 C 652.347656 239.734375 651.402344 240.550781 650.476562 241.390625 C 649.554688 242.226562 648.648438 243.089844 647.765625 243.972656 C 646.882812 244.855469 646.019531 245.757812 645.183594 246.683594 C 644.34375 247.609375 643.527344 248.554688 642.734375 249.519531 C 641.945312 250.484375 641.175781 251.46875 640.429688 252.472656 C 639.6875 253.476562 638.96875 254.496094 638.273438 255.535156 C 637.582031 256.574219 636.914062 257.628906 636.269531 258.699219 C 635.628906 259.773438 635.011719 260.859375 634.425781 261.960938 C 633.835938 263.0625 633.273438 264.175781 632.738281 265.304688 C 632.207031 266.433594 631.699219 267.578125 631.222656 268.730469 C 630.746094 269.882812 630.296875 271.050781 629.875 272.226562 C 629.453125 273.402344 629.0625 274.585938 628.699219 275.78125 C 628.335938 276.976562 628.003906 278.179688 627.699219 279.390625 C 627.398438 280.601562 627.125 281.820312 626.878906 283.046875 C 626.636719 284.269531 626.421875 285.5 626.238281 286.738281 C 626.054688 287.972656 625.902344 289.210938 625.78125 290.453125 C 625.65625 291.699219 625.566406 292.941406 625.503906 294.191406 C 625.445312 295.4375 625.414062 296.6875 625.414062 297.933594 Z M 625.414062 297.933594 " fill-opacity="1" fill-rule="nonzero"/><path fill="#000000" d="M 640.390625 297.933594 C 640.390625 299.945312 640.488281 301.949219 640.683594 303.949219 C 640.882812 305.945312 641.175781 307.929688 641.566406 309.902344 C 641.960938 311.871094 642.445312 313.820312 643.03125 315.742188 C 643.613281 317.664062 644.289062 319.550781 645.058594 321.410156 C 645.828125 323.265625 646.683594 325.078125 647.632812 326.851562 C 648.578125 328.621094 649.609375 330.34375 650.726562 332.011719 C 651.84375 333.683594 653.039062 335.296875 654.3125 336.847656 C 655.585938 338.402344 656.933594 339.886719 658.355469 341.308594 C 659.777344 342.730469 661.261719 344.078125 662.816406 345.351562 C 664.367188 346.625 665.980469 347.820312 667.648438 348.9375 C 669.320312 350.054688 671.042969 351.085938 672.8125 352.03125 C 674.585938 352.980469 676.398438 353.835938 678.253906 354.605469 C 680.109375 355.375 682 356.050781 683.921875 356.632812 C 685.84375 357.214844 687.792969 357.703125 689.761719 358.097656 C 691.730469 358.488281 693.71875 358.78125 695.714844 358.980469 C 697.714844 359.175781 699.71875 359.273438 701.730469 359.273438 C 703.738281 359.273438 705.742188 359.175781 707.742188 358.980469 C 709.742188 358.78125 711.726562 358.488281 713.695312 358.097656 C 715.664062 357.703125 717.613281 357.214844 719.535156 356.632812 C 721.457031 356.050781 723.347656 355.375 725.203125 354.605469 C 727.058594 353.835938 728.871094 352.980469 730.644531 352.03125 C 732.414062 351.085938 734.136719 350.054688 735.808594 348.9375 C 737.476562 347.820312 739.089844 346.625 740.640625 345.351562 C 742.195312 344.078125 743.683594 342.730469 745.101562 341.308594 C 746.523438 339.886719 747.871094 338.402344 749.144531 336.847656 C 750.417969 335.296875 751.613281 333.683594 752.730469 332.011719 C 753.847656 330.34375 754.878906 328.621094 755.824219 326.851562 C 756.773438 325.078125 757.628906 323.265625 758.398438 321.410156 C 759.167969 319.550781 759.84375 317.664062 760.425781 315.742188 C 761.011719 313.820312 761.496094 311.871094 761.890625 309.902344 C 762.28125 307.929688 762.574219 305.945312 762.773438 303.949219 C 762.96875 301.949219 763.070312 299.945312 763.070312 297.933594 C 763.070312 295.925781 762.96875 293.921875 762.773438 291.921875 C 762.574219 289.921875 762.28125 287.9375 761.890625 285.96875 C 761.496094 283.996094 761.011719 282.050781 760.425781 280.128906 C 759.84375 278.207031 759.167969 276.316406 758.398438 274.460938 C 757.628906 272.605469 756.773438 270.792969 755.824219 269.019531 C 754.878906 267.246094 753.847656 265.527344 752.730469 263.855469 C 751.613281 262.1875 750.417969 260.574219 749.144531 259.023438 C 747.871094 257.46875 746.523438 255.980469 745.101562 254.5625 C 743.683594 253.140625 742.195312 251.792969 740.640625 250.519531 C 739.089844 249.246094 737.476562 248.050781 735.808594 246.933594 C 734.136719 245.816406 732.414062 244.785156 730.644531 243.839844 C 728.871094 242.890625 727.058594 242.035156 725.203125 241.265625 C 723.347656 240.496094 721.457031 239.820312 719.535156 239.238281 C 717.613281 238.652344 715.664062 238.164062 713.695312 237.773438 C 711.726562 237.382812 709.742188 237.085938 707.742188 236.890625 C 705.742188 236.695312 703.738281 236.59375 701.730469 236.59375 C 699.71875 236.59375 697.714844 236.695312 695.714844 236.890625 C 693.71875 237.085938 691.730469 237.382812 689.761719 237.773438 C 687.792969 238.164062 685.84375 238.652344 683.921875 239.238281 C 682 239.820312 680.109375 240.496094 678.253906 241.265625 C 676.398438 242.035156 674.585938 242.890625 672.8125 243.839844 C 671.042969 244.785156 669.320312 245.816406 667.648438 246.933594 C 665.980469 248.050781 664.367188 249.246094 662.816406 250.519531 C 661.261719 251.792969 659.777344 253.140625 658.355469 254.5625 C 656.933594 255.980469 655.585938 257.46875 654.3125 259.023438 C 653.039062 260.574219 651.84375 262.1875 650.726562 263.855469 C 649.609375 265.527344 648.578125 267.246094 647.632812 269.019531 C 646.683594 270.792969 645.828125 272.605469 645.058594 274.460938 C 644.289062 276.316406 643.613281 278.207031 643.03125 280.128906 C 642.445312 282.050781 641.960938 283.996094 641.566406 285.96875 C 641.175781 287.9375 640.882812 289.921875 640.683594 291.921875 C 640.488281 293.921875 640.390625 295.925781 640.390625 297.933594 Z M 640.390625 297.933594 " fill-opacity="1" fill-rule="nonzero"/><path fill="#000000" d="M 83.398438 656.128906 C 84.277344 656.128906 85.164062 655.996094 86.046875 655.71875 C 90.660156 654.257812 93.21875 649.332031 91.757812 644.714844 C 78.660156 603.363281 65.121094 560.601562 64.671875 516.539062 C 64.1875 468.785156 80.886719 427.140625 109.34375 405.136719 C 132.414062 387.296875 162.128906 382.632812 188.148438 380.429688 C 192.972656 380.019531 196.554688 375.777344 196.144531 370.957031 C 195.734375 366.132812 191.5 362.570312 186.671875 362.960938 C 158.101562 365.382812 125.296875 370.640625 98.621094 391.273438 C 65.847656 416.609375 46.605469 463.503906 47.144531 516.71875 C 47.617188 563.394531 61.5625 607.425781 75.046875 650.007812 C 76.226562 653.742188 79.679688 656.128906 83.398438 656.128906 Z M 83.398438 656.128906 " fill-opacity="1" fill-rule="nonzero"/><path fill="#000000" d="M 267.996094 881.472656 C 272.242188 881.472656 275.972656 878.378906 276.644531 874.054688 C 277.390625 869.273438 274.113281 864.789062 269.332031 864.046875 C 238.625 859.273438 207.878906 841.1875 182.761719 813.121094 C 158.246094 785.730469 141.3125 752.222656 127.988281 723.0625 C 125.972656 718.660156 120.777344 716.726562 116.371094 718.734375 C 111.96875 720.746094 110.03125 725.945312 112.042969 730.347656 C 125.917969 760.707031 143.621094 795.671875 169.703125 824.8125 C 197.515625 855.886719 231.941406 875.972656 266.636719 881.367188 C 267.09375 881.441406 267.546875 881.472656 267.996094 881.472656 Z M 267.996094 881.472656 " fill-opacity="1" fill-rule="nonzero"/></g></g></g><g clip-path="url(#bd942e6309)"><path fill="#000000" d="M 987.769531 1022.550781 L 987.804688 1022.46875 C 1007.074219 978.425781 1009.503906 920.996094 978.019531 881.808594 C 972.183594 874.785156 964.972656 867.890625 956.050781 865.3125 C 945.316406 862.199219 938.765625 869.488281 933.316406 877.523438 C 927.15625 886.125 921.773438 895.191406 919.949219 905.675781 C 918.320312 914.085938 917.953125 923.285156 915.792969 931.96875 C 914.34375 937.996094 912.089844 943.84375 909.105469 949.21875 C 895.253906 974.085938 867.292969 988.226562 857.4375 1016.34375 C 855.027344 1022.964844 854.121094 1029.320312 853.253906 1036.40625 C 853 1038.351562 852.71875 1040.363281 852.363281 1042.429688 C 847.820312 1074.039062 821.160156 1085.40625 824.527344 1097.941406 C 825.960938 1103.105469 832.003906 1107.429688 837.316406 1109.851562 C 900.023438 1134.65625 963.691406 1077.277344 987.769531 1022.550781 Z M 987.769531 1022.550781 " fill-opacity="1" fill-rule="nonzero"/></g><g clip-path="url(#cb49a00858)"><path fill="#000000" d="M 877.480469 969.519531 C 892.144531 955.929688 903.65625 940.550781 906.527344 920.378906 C 908.140625 911.3125 908.316406 903.542969 911.339844 894.550781 C 913.050781 889.421875 915.703125 883.960938 918.746094 879.226562 C 924.492188 869.660156 932.101562 865.347656 930.292969 858.042969 C 929.171875 853.992188 927.050781 849.894531 918.5625 847.117188 C 910.464844 844.714844 918.484375 847.078125 918.484375 847.078125 C 803.152344 809.578125 698.632812 990.078125 777.542969 1077.03125 C 782.40625 1082.476562 788.132812 1087.671875 794.976562 1090.292969 C 799.148438 1091.953125 804.277344 1092.378906 808.191406 1090.523438 C 813.089844 1088.292969 816.03125 1083.882812 819.460938 1079.34375 C 821.609375 1076.421875 823.863281 1073.597656 826.179688 1070.773438 C 849.222656 1045.917969 837.804688 1015.527344 858.527344 989.136719 C 864.035156 981.945312 871.019531 975.65625 877.480469 969.519531 Z M 899.351562 854.164062 C 853.714844 867.390625 816.398438 894.390625 789.648438 933.746094 C 788.089844 935.871094 787.023438 937.136719 786.679688 937.070312 L 786.667969 937.070312 C 786.316406 937.019531 786.710938 935.609375 787.644531 933.292969 C 805.882812 889.824219 845.667969 849.148438 894.28125 850.351562 C 896.632812 850.441406 902.171875 850.597656 902.894531 851.871094 C 903.167969 852.496094 901.921875 853.417969 899.351562 854.164062 Z M 899.351562 854.164062 " fill-opacity="1" fill-rule="nonzero"/></g></svg>