<svg xmlns="http://www.w3.org/2000/svg" xmlns:xlink="http://www.w3.org/1999/xlink" width="2000" zoomAndPan="magnify" viewBox="0 0 1500 1499.999933" height="2000" preserveAspectRatio="xMidYMid meet" version="1.0"><defs><clipPath id="db35653ee8"><path d="M 312 395 L 1204.15625 395 L 1204.15625 1105.671875 L 312 1105.671875 Z M 312 395 " clip-rule="nonzero"/></clipPath><clipPath id="68571b863d"><path d="M 0.238281 204 L 232 204 L 232 602 L 0.238281 602 Z M 0.238281 204 " clip-rule="nonzero"/></clipPath><clipPath id="0108ae0d19"><path d="M 122 191 L 892 191 L 892 710.671875 L 122 710.671875 Z M 122 191 " clip-rule="nonzero"/></clipPath><clipPath id="f9954cd930"><path d="M 122 65 L 892.078125 65 L 892.078125 311 L 122 311 Z M 122 65 " clip-rule="nonzero"/></clipPath><clipPath id="4d62f1b2af"><path d="M 297 0.0390625 L 673 0.0390625 L 673 462 L 297 462 Z M 297 0.0390625 " clip-rule="nonzero"/></clipPath><clipPath id="cb9541dd95"><rect x="0" width="893" y="0" height="711"/></clipPath><clipPath id="cdf5c02106"><path d="M 797 823 L 912 823 L 912 985.425781 L 797 985.425781 Z M 797 823 " clip-rule="nonzero"/></clipPath><clipPath id="7b91e4340a"><path d="M 750 809.175781 L 867 809.175781 L 867 970 L 750 970 Z M 750 809.175781 " clip-rule="nonzero"/></clipPath></defs><g clip-path="url(#db35653ee8)"><g transform="matrix(1, 0, 0, 1, 312, 395)"><g clip-path="url(#cb9541dd95)"><path fill="#fff8ed" d="M 212.386719 545.257812 C 193.335938 545.226562 164.746094 543.765625 147.921875 534.828125 C 128.058594 524.277344 114.96875 504.503906 104.078125 484.828125 C 80.085938 441.488281 62.476562 394.203125 56.277344 345.054688 C 54.722656 332.71875 53.898438 320.089844 56.496094 307.929688 C 60.082031 291.136719 70.382812 275.875 84.617188 266.269531 C 98.851562 256.664062 116.859375 252.820312 133.773438 255.777344 L 130.3125 210.394531 C 84.011719 213.917969 23.964844 221.289062 10.613281 281.871094 C -9.390625 372.613281 48.515625 506.292969 99.5 554.152344 C 133.253906 585.84375 180.667969 605.011719 225.035156 591.765625 Z M 212.386719 545.257812 " fill-opacity="1" fill-rule="nonzero"/><g clip-path="url(#68571b863d)"><path fill="#000000" d="M 195.386719 601.667969 C 206.03125 601.667969 216.519531 600.191406 226.644531 597.167969 L 231.914062 595.59375 L 216.695312 539.628906 L 212.398438 539.621094 C 183.894531 539.578125 162.511719 536.199219 150.566406 529.851562 C 131.6875 519.824219 118.964844 500.085938 109.007812 482.097656 C 83.425781 435.890625 67.566406 389.546875 61.867188 344.351562 C 60.511719 333.589844 59.46875 320.992188 62.003906 309.105469 C 65.300781 293.675781 74.691406 279.765625 87.769531 270.9375 C 100.847656 262.113281 117.269531 258.609375 132.804688 261.328125 L 139.945312 262.574219 L 135.503906 204.347656 L 129.886719 204.773438 C 91.480469 207.699219 19.992188 213.140625 5.109375 280.65625 C -16.039062 376.597656 45.59375 511.28125 95.640625 558.261719 C 125.722656 586.503906 161.324219 601.667969 195.386719 601.667969 Z M 218.113281 587.785156 C 180.699219 596.632812 138.214844 582.769531 103.355469 550.046875 C 54.613281 504.292969 -3.492188 372.035156 16.117188 283.082031 C 27.726562 230.410156 77.613281 220.46875 125.125 216.460938 L 127.632812 249.347656 C 111.449219 248.175781 94.957031 252.492188 81.464844 261.597656 C 65.992188 272.039062 54.882812 288.496094 50.984375 306.753906 C 48.09375 320.28125 49.210938 334.0625 50.6875 345.757812 C 56.566406 392.382812 72.871094 440.089844 99.148438 487.558594 C 109.90625 506.988281 123.800781 528.394531 145.277344 539.804688 C 158.386719 546.769531 179.496094 550.484375 208.074219 550.859375 Z M 218.113281 587.785156 " fill-opacity="1" fill-rule="nonzero"/></g><path fill="#fff8ed" d="M 127.960938 191.785156 C 137.722656 288.808594 151.5625 367.941406 177.363281 461.980469 C 196.308594 531.035156 218.121094 607 277.0625 647.664062 C 318.933594 676.550781 379.441406 694.730469 430.058594 699.78125 C 498.171875 706.574219 567.9375 708.515625 634.09375 690.9375 C 700.25 673.363281 757.902344 663.628906 801.367188 576.007812 C 840.128906 497.867188 875.269531 294.9375 886.328125 192.386719 Z M 127.960938 191.785156 " fill-opacity="1" fill-rule="nonzero"/><g clip-path="url(#0108ae0d19)"><path fill="#000000" d="M 516.921875 710.296875 C 555.328125 710.296875 596.09375 706.867188 635.542969 696.386719 C 639.800781 695.253906 644.027344 694.15625 648.21875 693.0625 C 710.675781 676.8125 764.613281 662.777344 806.417969 578.511719 C 844.714844 501.304688 880.085938 302.820312 891.933594 192.992188 L 880.726562 191.78125 C 868.96875 300.808594 834.011719 497.523438 796.320312 573.503906 C 756.800781 653.167969 705.167969 666.601562 645.378906 682.15625 C 641.171875 683.253906 636.925781 684.355469 632.648438 685.496094 C 562.710938 704.074219 487.945312 699.890625 430.621094 694.171875 C 375.65625 688.691406 318.042969 669.09375 280.261719 643.027344 C 221.816406 602.703125 200.179688 523.847656 182.796875 460.488281 C 157.964844 369.980469 143.703125 291.96875 133.566406 191.222656 L 122.355469 192.351562 C 132.554688 293.765625 146.917969 372.316406 171.929688 463.46875 C 189.796875 528.597656 212.035156 609.644531 273.859375 652.300781 C 313.117188 679.386719 372.753906 699.726562 429.5 705.386719 C 455.710938 708.003906 485.527344 710.296875 516.921875 710.296875 Z M 516.921875 710.296875 " fill-opacity="1" fill-rule="nonzero"/></g><path fill="#fff8ed" d="M 127.839844 187.894531 C 127.839844 189.808594 127.992188 191.722656 128.296875 193.636719 C 128.597656 195.550781 129.054688 197.460938 129.664062 199.367188 C 130.273438 201.273438 131.03125 203.175781 131.941406 205.070312 C 132.855469 206.964844 133.914062 208.855469 135.125 210.734375 C 136.335938 212.613281 137.695312 214.480469 139.203125 216.339844 C 140.714844 218.199219 142.367188 220.042969 144.167969 221.878906 C 145.972656 223.710938 147.917969 225.53125 150.007812 227.332031 C 152.101562 229.136719 154.335938 230.925781 156.710938 232.695312 C 159.085938 234.464844 161.597656 236.214844 164.253906 237.949219 C 166.90625 239.679688 169.699219 241.390625 172.625 243.082031 C 175.550781 244.769531 178.609375 246.4375 181.800781 248.082031 C 184.992188 249.722656 188.308594 251.34375 191.757812 252.933594 C 195.207031 254.527344 198.78125 256.09375 202.476562 257.632812 C 206.175781 259.171875 209.992188 260.683594 213.933594 262.164062 C 217.871094 263.644531 221.921875 265.09375 226.089844 266.515625 C 230.261719 267.933594 234.539062 269.320312 238.929688 270.675781 C 243.316406 272.03125 247.8125 273.351562 252.410156 274.636719 C 257.011719 275.925781 261.707031 277.175781 266.507812 278.390625 C 271.304688 279.605469 276.199219 280.785156 281.183594 281.925781 C 286.167969 283.066406 291.242188 284.171875 296.402344 285.234375 C 301.566406 286.300781 306.808594 287.324219 312.132812 288.308594 C 317.457031 289.296875 322.855469 290.238281 328.328125 291.140625 C 333.804688 292.046875 339.347656 292.90625 344.957031 293.726562 C 350.570312 294.546875 356.242188 295.320312 361.976562 296.054688 C 367.710938 296.789062 373.5 297.476562 379.34375 298.121094 C 385.191406 298.769531 391.082031 299.367188 397.023438 299.925781 C 402.960938 300.480469 408.941406 300.992188 414.964844 301.457031 C 420.984375 301.921875 427.039062 302.34375 433.128906 302.714844 C 439.214844 303.089844 445.332031 303.417969 451.46875 303.699219 C 457.609375 303.980469 463.769531 304.214844 469.945312 304.402344 C 476.125 304.589844 482.3125 304.730469 488.511719 304.824219 C 494.710938 304.917969 500.914062 304.964844 507.121094 304.964844 C 513.328125 304.964844 519.535156 304.917969 525.734375 304.824219 C 531.933594 304.730469 538.121094 304.589844 544.300781 304.402344 C 550.476562 304.214844 556.636719 303.980469 562.773438 303.699219 C 568.914062 303.417969 575.03125 303.089844 581.117188 302.714844 C 587.207031 302.34375 593.261719 301.921875 599.28125 301.457031 C 605.300781 300.992188 611.285156 300.480469 617.222656 299.925781 C 623.164062 299.367188 629.054688 298.769531 634.898438 298.121094 C 640.746094 297.476562 646.535156 296.789062 652.269531 296.054688 C 658.003906 295.320312 663.675781 294.546875 669.289062 293.726562 C 674.898438 292.90625 680.441406 292.046875 685.917969 291.140625 C 691.390625 290.238281 696.789062 289.292969 702.113281 288.308594 C 707.4375 287.324219 712.679688 286.300781 717.84375 285.234375 C 723.003906 284.171875 728.078125 283.066406 733.0625 281.925781 C 738.046875 280.785156 742.941406 279.605469 747.738281 278.390625 C 752.535156 277.175781 757.234375 275.925781 761.835938 274.636719 C 766.433594 273.351562 770.929688 272.03125 775.316406 270.675781 C 779.707031 269.320312 783.984375 267.933594 788.152344 266.515625 C 792.324219 265.09375 796.375 263.644531 800.3125 262.164062 C 804.25 260.683594 808.070312 259.171875 811.765625 257.632812 C 815.464844 256.09375 819.039062 254.527344 822.488281 252.933594 C 825.933594 251.34375 829.253906 249.722656 832.445312 248.082031 C 835.636719 246.4375 838.695312 244.769531 841.621094 243.082031 C 844.546875 241.390625 847.339844 239.679688 849.992188 237.949219 C 852.644531 236.214844 855.160156 234.464844 857.535156 232.695312 C 859.910156 230.925781 862.144531 229.136719 864.234375 227.332031 C 866.328125 225.53125 868.273438 223.710938 870.074219 221.878906 C 871.878906 220.042969 873.53125 218.199219 875.039062 216.339844 C 876.550781 214.480469 877.910156 212.613281 879.121094 210.734375 C 880.332031 208.855469 881.390625 206.964844 882.300781 205.070312 C 883.214844 203.175781 883.972656 201.273438 884.582031 199.367188 C 885.191406 197.460938 885.644531 195.550781 885.949219 193.636719 C 886.253906 191.722656 886.40625 189.808594 886.40625 187.894531 C 886.40625 185.976562 886.253906 184.0625 885.949219 182.148438 C 885.644531 180.234375 885.191406 178.324219 884.582031 176.417969 C 883.972656 174.511719 883.214844 172.609375 882.300781 170.714844 C 881.390625 168.820312 880.332031 166.933594 879.121094 165.054688 C 877.910156 163.175781 876.550781 161.304688 875.039062 159.445312 C 873.53125 157.589844 871.878906 155.742188 870.074219 153.910156 C 868.273438 152.074219 866.328125 150.257812 864.234375 148.453125 C 862.144531 146.648438 859.910156 144.863281 857.535156 143.089844 C 855.160156 141.320312 852.644531 139.570312 849.992188 137.839844 C 847.339844 136.105469 844.546875 134.394531 841.621094 132.707031 C 838.695312 131.015625 835.636719 129.347656 832.445312 127.707031 C 829.253906 126.0625 825.933594 124.445312 822.488281 122.851562 C 819.039062 121.257812 815.464844 119.691406 811.765625 118.152344 C 808.070312 116.613281 804.25 115.105469 800.3125 113.621094 C 796.375 112.140625 792.324219 110.691406 788.152344 109.273438 C 783.984375 107.851562 779.707031 106.464844 775.316406 105.109375 C 770.929688 103.753906 766.433594 102.433594 761.835938 101.148438 C 757.234375 99.859375 752.535156 98.609375 747.738281 97.394531 C 742.941406 96.179688 738.046875 95 733.0625 93.859375 C 728.078125 92.71875 723.003906 91.613281 717.84375 90.550781 C 712.679688 89.484375 707.4375 88.460938 702.113281 87.476562 C 696.789062 86.492188 691.390625 85.546875 685.917969 84.644531 C 680.441406 83.742188 674.898438 82.878906 669.289062 82.058594 C 663.675781 81.242188 658.003906 80.464844 652.269531 79.730469 C 646.535156 79 640.746094 78.308594 634.898438 77.664062 C 629.054688 77.019531 623.164062 76.417969 617.222656 75.859375 C 611.285156 75.304688 605.300781 74.792969 599.28125 74.328125 C 593.261719 73.863281 587.207031 73.445312 581.117188 73.070312 C 575.03125 72.695312 568.914062 72.367188 562.773438 72.085938 C 556.636719 71.804688 550.476562 71.570312 544.300781 71.382812 C 538.121094 71.195312 531.933594 71.054688 525.734375 70.960938 C 519.535156 70.867188 513.328125 70.820312 507.121094 70.820312 C 500.914062 70.820312 494.710938 70.867188 488.511719 70.960938 C 482.3125 71.054688 476.125 71.195312 469.945312 71.382812 C 463.769531 71.570312 457.609375 71.804688 451.46875 72.085938 C 445.332031 72.367188 439.214844 72.695312 433.128906 73.070312 C 427.039062 73.445312 420.984375 73.863281 414.964844 74.328125 C 408.941406 74.792969 402.960938 75.304688 397.023438 75.859375 C 391.082031 76.417969 385.191406 77.019531 379.347656 77.664062 C 373.5 78.308594 367.710938 79 361.976562 79.730469 C 356.242188 80.464844 350.570312 81.242188 344.957031 82.058594 C 339.347656 82.878906 333.804688 83.742188 328.328125 84.644531 C 322.855469 85.546875 317.457031 86.492188 312.132812 87.476562 C 306.808594 88.460938 301.566406 89.484375 296.402344 90.550781 C 291.242188 91.613281 286.167969 92.71875 281.183594 93.859375 C 276.199219 95 271.304688 96.179688 266.507812 97.394531 C 261.707031 98.609375 257.011719 99.859375 252.410156 101.148438 C 247.8125 102.433594 243.316406 103.753906 238.929688 105.109375 C 234.539062 106.464844 230.261719 107.851562 226.089844 109.273438 C 221.921875 110.691406 217.871094 112.140625 213.933594 113.621094 C 209.992188 115.105469 206.175781 116.613281 202.476562 118.152344 C 198.78125 119.691406 195.207031 121.257812 191.757812 122.851562 C 188.308594 124.445312 184.992188 126.0625 181.800781 127.707031 C 178.609375 129.347656 175.550781 131.015625 172.625 132.707031 C 169.699219 134.394531 166.90625 136.105469 164.253906 137.839844 C 161.597656 139.570312 159.085938 141.320312 156.710938 143.089844 C 154.335938 144.863281 152.101562 146.648438 150.007812 148.453125 C 147.917969 150.257812 145.972656 152.074219 144.167969 153.910156 C 142.367188 155.742188 140.714844 157.589844 139.203125 159.445312 C 137.695312 161.304688 136.335938 163.175781 135.125 165.054688 C 133.914062 166.933594 132.855469 168.820312 131.941406 170.714844 C 131.03125 172.609375 130.273438 174.511719 129.664062 176.417969 C 129.054688 178.324219 128.597656 180.234375 128.296875 182.148438 C 127.992188 184.0625 127.839844 185.976562 127.839844 187.894531 Z M 127.839844 187.894531 " fill-opacity="1" fill-rule="nonzero"/><g clip-path="url(#f9954cd930)"><path fill="#000000" d="M 507.121094 310.601562 C 722.964844 310.601562 892.042969 256.703125 892.042969 187.894531 C 892.042969 119.085938 722.964844 65.183594 507.121094 65.183594 C 291.28125 65.183594 122.203125 119.085938 122.203125 187.894531 C 122.203125 256.703125 291.28125 310.601562 507.121094 310.601562 Z M 507.121094 76.457031 C 709.660156 76.457031 880.773438 127.488281 880.773438 187.894531 C 880.773438 248.296875 709.660156 299.332031 507.121094 299.332031 C 304.582031 299.332031 133.472656 248.296875 133.472656 187.894531 C 133.472656 127.488281 304.582031 76.457031 507.121094 76.457031 Z M 507.121094 76.457031 " fill-opacity="1" fill-rule="nonzero"/></g><path fill="#fff8ed" d="M 156.71875 186.355469 C 156.71875 187.953125 156.859375 189.546875 157.140625 191.144531 C 157.421875 192.738281 157.84375 194.328125 158.40625 195.917969 C 158.964844 197.507812 159.667969 199.09375 160.511719 200.671875 C 161.351562 202.25 162.332031 203.824219 163.449219 205.390625 C 164.570312 206.957031 165.824219 208.511719 167.21875 210.0625 C 168.613281 211.609375 170.140625 213.148438 171.804688 214.675781 C 173.46875 216.203125 175.269531 217.71875 177.199219 219.222656 C 179.132812 220.726562 181.195312 222.214844 183.390625 223.691406 C 185.585938 225.167969 187.90625 226.625 190.359375 228.070312 C 192.8125 229.511719 195.390625 230.9375 198.09375 232.347656 C 200.796875 233.753906 203.621094 235.144531 206.570312 236.511719 C 209.519531 237.882812 212.585938 239.230469 215.769531 240.558594 C 218.957031 241.886719 222.257812 243.191406 225.675781 244.472656 C 229.089844 245.753906 232.617188 247.011719 236.253906 248.246094 C 239.894531 249.480469 243.636719 250.691406 247.488281 251.875 C 251.339844 253.058594 255.292969 254.210938 259.347656 255.34375 C 263.402344 256.472656 267.554688 257.570312 271.804688 258.644531 C 276.054688 259.714844 280.394531 260.757812 284.828125 261.769531 C 289.261719 262.785156 293.78125 263.765625 298.386719 264.71875 C 302.992188 265.667969 307.679688 266.585938 312.449219 267.476562 C 317.214844 268.363281 322.058594 269.214844 326.976562 270.035156 C 331.898438 270.855469 336.886719 271.644531 341.941406 272.398438 C 347 273.148438 352.121094 273.867188 357.304688 274.550781 C 362.488281 275.234375 367.730469 275.878906 373.027344 276.492188 C 378.328125 277.101562 383.675781 277.675781 389.074219 278.214844 C 394.472656 278.75 399.917969 279.253906 405.40625 279.714844 C 410.894531 280.179688 416.417969 280.605469 421.980469 280.992188 C 427.542969 281.378906 433.136719 281.730469 438.761719 282.042969 C 444.386719 282.355469 450.035156 282.625 455.707031 282.859375 C 461.378906 283.09375 467.070312 283.289062 472.777344 283.445312 C 478.484375 283.601562 484.203125 283.722656 489.929688 283.800781 C 495.65625 283.878906 501.386719 283.917969 507.121094 283.917969 C 512.855469 283.917969 518.589844 283.878906 524.316406 283.800781 C 530.042969 283.722656 535.761719 283.601562 541.46875 283.445312 C 547.175781 283.289062 552.867188 283.09375 558.539062 282.859375 C 564.210938 282.625 569.859375 282.355469 575.484375 282.042969 C 581.109375 281.730469 586.703125 281.378906 592.265625 280.992188 C 597.828125 280.605469 603.351562 280.179688 608.839844 279.714844 C 614.328125 279.253906 619.769531 278.75 625.171875 278.214844 C 630.570312 277.675781 635.917969 277.101562 641.21875 276.492188 C 646.515625 275.878906 651.757812 275.234375 656.941406 274.550781 C 662.125 273.867188 667.246094 273.148438 672.304688 272.398438 C 677.359375 271.644531 682.347656 270.859375 687.265625 270.035156 C 692.1875 269.214844 697.03125 268.363281 701.796875 267.476562 C 706.566406 266.585938 711.253906 265.667969 715.859375 264.71875 C 720.464844 263.765625 724.984375 262.785156 729.417969 261.769531 C 733.851562 260.757812 738.191406 259.714844 742.441406 258.644531 C 746.691406 257.570312 750.84375 256.472656 754.898438 255.34375 C 758.953125 254.210938 762.90625 253.058594 766.757812 251.875 C 770.605469 250.691406 774.351562 249.480469 777.988281 248.246094 C 781.628906 247.011719 785.15625 245.753906 788.570312 244.472656 C 791.988281 243.191406 795.289062 241.886719 798.472656 240.558594 C 801.660156 239.230469 804.726562 237.882812 807.675781 236.511719 C 810.625 235.144531 813.449219 233.753906 816.152344 232.347656 C 818.855469 230.9375 821.433594 229.511719 823.886719 228.070312 C 826.335938 226.625 828.660156 225.167969 830.855469 223.691406 C 833.050781 222.214844 835.113281 220.726562 837.046875 219.222656 C 838.976562 217.71875 840.773438 216.203125 842.441406 214.675781 C 844.105469 213.148438 845.632812 211.609375 847.027344 210.0625 C 848.421875 208.511719 849.675781 206.957031 850.796875 205.390625 C 851.914062 203.824219 852.894531 202.25 853.734375 200.671875 C 854.578125 199.09375 855.277344 197.507812 855.839844 195.917969 C 856.402344 194.328125 856.824219 192.738281 857.105469 191.144531 C 857.386719 189.546875 857.527344 187.953125 857.527344 186.355469 C 857.527344 184.757812 857.386719 183.164062 857.105469 181.570312 C 856.824219 179.972656 856.402344 178.382812 855.839844 176.792969 C 855.277344 175.203125 854.578125 173.621094 853.734375 172.042969 C 852.894531 170.460938 851.914062 168.890625 850.796875 167.324219 C 849.675781 165.757812 848.421875 164.199219 847.027344 162.652344 C 845.632812 161.101562 844.105469 159.5625 842.441406 158.035156 C 840.773438 156.507812 838.976562 154.992188 837.046875 153.488281 C 835.113281 151.984375 833.050781 150.496094 830.855469 149.019531 C 828.660156 147.546875 826.335938 146.085938 823.886719 144.644531 C 821.433594 143.199219 818.855469 141.773438 816.152344 140.367188 C 813.449219 138.957031 810.625 137.570312 807.675781 136.199219 C 804.726562 134.832031 801.660156 133.480469 798.472656 132.15625 C 795.289062 130.828125 791.988281 129.523438 788.570312 128.238281 C 785.15625 126.957031 781.628906 125.699219 777.988281 124.464844 C 774.351562 123.230469 770.605469 122.023438 766.757812 120.839844 C 762.90625 119.65625 758.953125 118.5 754.898438 117.371094 C 750.84375 116.242188 746.691406 115.140625 742.441406 114.070312 C 738.191406 112.996094 733.851562 111.953125 729.417969 110.941406 C 724.984375 109.929688 720.464844 108.945312 715.859375 107.996094 C 711.253906 107.042969 706.566406 106.125 701.796875 105.238281 C 697.03125 104.351562 692.1875 103.496094 687.265625 102.675781 C 682.347656 101.855469 677.359375 101.066406 672.304688 100.316406 C 667.246094 99.5625 662.125 98.84375 656.941406 98.164062 C 651.757812 97.480469 646.515625 96.832031 641.21875 96.222656 C 635.917969 95.609375 630.570312 95.035156 625.171875 94.5 C 619.769531 93.960938 614.328125 93.460938 608.839844 92.996094 C 603.351562 92.535156 597.828125 92.109375 592.265625 91.71875 C 586.703125 91.332031 581.109375 90.980469 575.484375 90.671875 C 569.859375 90.359375 564.210938 90.085938 558.539062 89.851562 C 552.867188 89.617188 547.175781 89.421875 541.46875 89.265625 C 535.761719 89.109375 530.042969 88.992188 524.316406 88.914062 C 518.589844 88.835938 512.855469 88.796875 507.121094 88.796875 C 501.386719 88.796875 495.65625 88.835938 489.929688 88.914062 C 484.203125 88.992188 478.484375 89.109375 472.777344 89.265625 C 467.070312 89.421875 461.378906 89.617188 455.707031 89.851562 C 450.035156 90.085938 444.386719 90.359375 438.761719 90.671875 C 433.136719 90.980469 427.542969 91.332031 421.980469 91.71875 C 416.417969 92.109375 410.894531 92.535156 405.40625 92.996094 C 399.917969 93.460938 394.472656 93.960938 389.074219 94.5 C 383.675781 95.035156 378.328125 95.609375 373.027344 96.222656 C 367.730469 96.832031 362.488281 97.480469 357.304688 98.164062 C 352.121094 98.84375 347 99.5625 341.941406 100.316406 C 336.886719 101.066406 331.898438 101.855469 326.976562 102.675781 C 322.058594 103.496094 317.214844 104.351562 312.449219 105.238281 C 307.679688 106.125 302.992188 107.042969 298.386719 107.996094 C 293.78125 108.945312 289.261719 109.929688 284.828125 110.941406 C 280.394531 111.953125 276.054688 112.996094 271.804688 114.070312 C 267.554688 115.140625 263.402344 116.242188 259.347656 117.371094 C 255.292969 118.5 251.339844 119.65625 247.488281 120.839844 C 243.636719 122.023438 239.894531 123.230469 236.253906 124.464844 C 232.617188 125.699219 229.089844 126.957031 225.675781 128.238281 C 222.257812 129.523438 218.957031 130.828125 215.769531 132.15625 C 212.585938 133.480469 209.519531 134.832031 206.570312 136.199219 C 203.621094 137.570312 200.796875 138.957031 198.09375 140.367188 C 195.390625 141.773438 192.8125 143.199219 190.359375 144.644531 C 187.90625 146.085938 185.585938 147.546875 183.390625 149.019531 C 181.195312 150.496094 179.132812 151.984375 177.199219 153.488281 C 175.269531 154.992188 173.46875 156.507812 171.804688 158.035156 C 170.140625 159.5625 168.613281 161.101562 167.21875 162.652344 C 165.824219 164.199219 164.570312 165.757812 163.449219 167.324219 C 162.332031 168.890625 161.351562 170.460938 160.511719 172.042969 C 159.667969 173.621094 158.964844 175.203125 158.40625 176.792969 C 157.84375 178.382812 157.421875 179.972656 157.140625 181.570312 C 156.859375 183.164062 156.71875 184.757812 156.71875 186.355469 Z M 156.71875 186.355469 " fill-opacity="1" fill-rule="nonzero"/><path fill="#000000" d="M 507.121094 289.550781 C 601.214844 289.550781 689.746094 279.332031 756.40625 260.769531 C 805.109375 247.210938 863.164062 223.292969 863.164062 186.355469 C 863.164062 149.417969 805.109375 125.503906 756.40625 111.941406 C 689.746094 93.382812 601.214844 83.160156 507.121094 83.160156 C 413.03125 83.160156 324.496094 93.382812 257.835938 111.941406 C 209.136719 125.503906 151.082031 149.417969 151.082031 186.355469 C 151.082031 223.292969 209.136719 247.210938 257.835938 260.769531 C 324.496094 279.332031 413.03125 289.550781 507.121094 289.550781 Z M 507.121094 94.429688 C 713.355469 94.429688 851.894531 141.960938 851.894531 186.355469 C 851.894531 230.75 713.355469 278.28125 507.121094 278.28125 C 300.890625 278.28125 162.351562 230.75 162.351562 186.355469 C 162.351562 141.960938 300.890625 94.429688 507.121094 94.429688 Z M 507.121094 94.429688 " fill-opacity="1" fill-rule="nonzero"/><g clip-path="url(#4d62f1b2af)"><path fill="#000000" d="M 297.554688 265.195312 C 313.910156 202.53125 345.523438 126.761719 383.359375 74.019531 C 385.980469 51.265625 391.894531 28.894531 400.855469 7.816406 C 401.839844 5.492188 402.964844 3.0625 405.046875 1.640625 C 407.953125 -0.339844 412.03125 0.238281 414.996094 2.128906 C 417.964844 4.023438 420.054688 6.984375 422.019531 9.902344 C 433.625 27.121094 443.628906 45.421875 451.617188 64.742188 C 491.621094 61.398438 531.925781 61.628906 572.183594 66.085938 C 586.648438 47.363281 601.191406 28.554688 618.359375 12.269531 C 622.644531 8.203125 628.953125 4.078125 633.96875 7.207031 C 636.851562 9.007812 637.996094 12.574219 638.847656 15.863281 C 644.46875 37.660156 646.394531 60.402344 643.425781 85.796875 C 653.808594 115.964844 663.886719 146.660156 666.089844 178.488281 C 668.289062 210.316406 661.847656 243.847656 641.734375 270.457031 C 674.4375 314.054688 675.515625 373.210938 671.15625 427.535156 C 670.101562 440.710938 666.800781 456.566406 654.292969 460.851562 C 647.1875 463.285156 639.054688 460.765625 633.34375 455.890625 C 627.628906 451.015625 624.015625 444.113281 621.433594 437.0625 C 613.726562 416.03125 614.140625 392.90625 608.445312 371.242188 C 600.945312 342.726562 578.414062 303.476562 559.746094 278.90625 C 516.136719 279.789062 475.71875 285.042969 435.535156 280.527344 C 454.292969 324.25 459.488281 381.632812 447.128906 427.574219 C 444.402344 437.71875 439.511719 449.058594 429.371094 451.792969 C 418.226562 454.792969 407.390625 445.359375 402.085938 435.109375 C 389.050781 409.941406 395.207031 379.210938 388.183594 351.753906 C 384.769531 338.414062 378.292969 326.082031 371.53125 314.085938 C 359.785156 293.246094 353.519531 290.890625 338.992188 271.097656 C 328.984375 270.238281 309.261719 267.222656 297.554688 265.195312 Z M 297.554688 265.195312 " fill-opacity="1" fill-rule="nonzero"/></g><path fill="#fff8ed" d="M 414.910156 24.050781 C 421.152344 32.179688 426.464844 41.085938 429.691406 50.855469 C 430.792969 54.0625 431.6875 57.34375 432.414062 60.65625 C 432.507812 61.082031 432.421875 61.539062 432.179688 61.90625 C 430.6875 63.621094 429.074219 62.144531 428.96875 60.261719 C 426.933594 51.503906 424.210938 44.523438 419.492188 36.414062 C 417.007812 32.058594 415.039062 29.785156 412.265625 25.625 C 411.613281 24.085938 413.839844 22.761719 414.910156 24.050781 Z M 414.910156 24.050781 " fill-opacity="1" fill-rule="nonzero"/><path fill="#fff8ed" d="M 595.726562 64.585938 C 601.429688 54.496094 608.675781 45.363281 616.484375 36.832031 C 617.589844 35.617188 618.6875 34.398438 619.777344 33.167969 C 620.074219 32.871094 620.484375 32.703125 620.90625 32.703125 C 622.277344 32.660156 623.039062 34.484375 622.035156 35.425781 C 612.578125 45.578125 605.363281 54.910156 598.226562 66.78125 C 596.855469 67.964844 594.757812 66.117188 595.726562 64.585938 Z M 595.726562 64.585938 " fill-opacity="1" fill-rule="nonzero"/><path fill="#fff8ed" d="M 520.46875 209.5625 C 523.566406 209.585938 527.480469 209.101562 530.066406 211.074219 C 531.582031 213.097656 529.582031 214.890625 527.664062 216.328125 C 527.476562 216.546875 527.285156 216.761719 527.117188 216.988281 C 526.203125 218.070312 525.222656 219.21875 523.847656 219.699219 C 522.425781 220.175781 521.183594 219.195312 520.167969 218.320312 C 518.550781 216.925781 516.722656 215.65625 515.597656 213.804688 C 513.933594 210.128906 517.769531 209.667969 520.46875 209.5625 Z M 520.46875 209.5625 " fill-opacity="1" fill-rule="nonzero"/><path fill="#fff8ed" d="M 578.324219 146.171875 C 576.789062 146.527344 575.273438 146.960938 573.777344 147.46875 C 572.285156 147.976562 570.820312 148.554688 569.382812 149.207031 C 567.945312 149.859375 566.542969 150.578125 565.175781 151.367188 C 563.8125 152.15625 562.488281 153.007812 561.203125 153.929688 C 559.921875 154.847656 558.6875 155.828125 557.5 156.867188 C 556.316406 157.90625 555.183594 159.003906 554.105469 160.15625 C 553.027344 161.308594 552.007812 162.507812 551.046875 163.761719 C 550.085938 165.011719 549.1875 166.308594 548.355469 167.648438 C 547.523438 168.988281 546.757812 170.363281 546.058594 171.78125 C 545.363281 173.195312 544.734375 174.640625 544.179688 176.117188 C 543.625 177.59375 543.140625 179.09375 542.734375 180.617188 C 542.324219 182.140625 541.992188 183.683594 541.734375 185.238281 C 541.480469 186.796875 541.300781 188.359375 541.195312 189.9375 C 541.09375 191.511719 541.066406 193.085938 541.117188 194.664062 C 541.171875 196.238281 541.300781 197.808594 541.503906 199.375 C 541.710938 200.9375 541.992188 202.488281 542.351562 204.023438 C 542.710938 205.5625 543.144531 207.078125 543.648438 208.570312 C 544.15625 210.066406 544.738281 211.53125 545.386719 212.96875 C 546.039062 214.402344 546.757812 215.804688 547.546875 217.171875 C 548.335938 218.539062 549.191406 219.863281 550.109375 221.144531 C 551.027344 222.425781 552.007812 223.660156 553.046875 224.847656 C 554.089844 226.035156 555.183594 227.167969 556.335938 228.246094 C 557.488281 229.324219 558.691406 230.34375 559.941406 231.304688 C 561.191406 232.261719 562.488281 233.160156 563.828125 233.992188 C 565.167969 234.828125 566.546875 235.589844 567.960938 236.289062 C 569.375 236.988281 570.820312 237.613281 572.296875 238.167969 C 573.773438 238.726562 575.277344 239.207031 576.800781 239.617188 C 578.324219 240.023438 579.863281 240.355469 581.421875 240.613281 C 582.976562 240.871094 584.542969 241.050781 586.117188 241.152344 C 587.691406 241.257812 589.265625 241.28125 590.84375 241.230469 C 592.421875 241.179688 593.992188 241.050781 595.554688 240.84375 C 597.121094 240.636719 598.667969 240.355469 600.207031 239.996094 C 601.742188 239.640625 603.257812 239.207031 604.75 238.699219 C 606.246094 238.191406 607.710938 237.613281 609.148438 236.960938 C 610.585938 236.308594 611.988281 235.589844 613.351562 234.800781 C 614.71875 234.011719 616.042969 233.160156 617.328125 232.238281 C 618.609375 231.320312 619.84375 230.339844 621.027344 229.300781 C 622.214844 228.261719 623.347656 227.164062 624.425781 226.011719 C 625.503906 224.859375 626.523438 223.660156 627.484375 222.40625 C 628.445312 221.15625 629.339844 219.859375 630.175781 218.519531 C 631.007812 217.179688 631.773438 215.804688 632.472656 214.386719 C 633.167969 212.972656 633.796875 211.527344 634.351562 210.050781 C 634.90625 208.574219 635.386719 207.074219 635.796875 205.550781 C 636.203125 204.027344 636.539062 202.484375 636.792969 200.929688 C 637.050781 199.371094 637.230469 197.804688 637.335938 196.230469 C 637.4375 194.65625 637.464844 193.082031 637.410156 191.503906 C 637.359375 189.929688 637.230469 188.359375 637.023438 186.792969 C 636.820312 185.230469 636.535156 183.679688 636.179688 182.144531 C 635.820312 180.605469 635.386719 179.089844 634.878906 177.597656 C 634.375 176.101562 633.792969 174.636719 633.144531 173.199219 C 632.492188 171.765625 631.769531 170.363281 630.984375 168.996094 C 630.195312 167.628906 629.339844 166.304688 628.421875 165.023438 C 627.5 163.742188 626.523438 162.507812 625.480469 161.320312 C 624.441406 160.132812 623.34375 159 622.195312 157.921875 C 621.042969 156.84375 619.839844 155.824219 618.589844 154.863281 C 617.335938 153.90625 616.042969 153.007812 614.703125 152.175781 C 613.363281 151.339844 611.984375 150.578125 610.570312 149.878906 C 609.152344 149.179688 607.707031 148.554688 606.230469 148 C 604.753906 147.441406 603.253906 146.960938 601.730469 146.550781 C 600.207031 146.144531 598.667969 145.8125 597.109375 145.554688 C 595.554688 145.296875 593.988281 145.117188 592.414062 145.015625 C 590.839844 144.910156 589.261719 144.886719 587.6875 144.9375 C 586.109375 144.988281 584.539062 145.117188 582.976562 145.324219 C 581.410156 145.53125 579.859375 145.8125 578.324219 146.171875 Z M 578.324219 146.171875 " fill-opacity="1" fill-rule="nonzero"/><path fill="#000000" d="M 550.546875 193.082031 C 550.546875 194.351562 550.609375 195.617188 550.730469 196.878906 C 550.855469 198.140625 551.042969 199.394531 551.289062 200.636719 C 551.539062 201.882812 551.84375 203.109375 552.214844 204.324219 C 552.582031 205.535156 553.007812 206.730469 553.492188 207.902344 C 553.980469 209.074219 554.519531 210.21875 555.117188 211.335938 C 555.714844 212.453125 556.367188 213.539062 557.070312 214.59375 C 557.777344 215.648438 558.53125 216.667969 559.335938 217.648438 C 560.140625 218.628906 560.988281 219.566406 561.886719 220.460938 C 562.785156 221.359375 563.722656 222.210938 564.703125 223.015625 C 565.683594 223.820312 566.699219 224.574219 567.753906 225.277344 C 568.808594 225.984375 569.894531 226.632812 571.011719 227.230469 C 572.132812 227.828125 573.277344 228.371094 574.449219 228.855469 C 575.621094 229.339844 576.8125 229.769531 578.027344 230.136719 C 579.238281 230.503906 580.46875 230.8125 581.710938 231.058594 C 582.957031 231.308594 584.207031 231.492188 585.46875 231.617188 C 586.730469 231.742188 587.996094 231.804688 589.265625 231.804688 C 590.535156 231.804688 591.796875 231.742188 593.058594 231.617188 C 594.324219 231.492188 595.574219 231.308594 596.820312 231.058594 C 598.0625 230.8125 599.292969 230.503906 600.503906 230.136719 C 601.71875 229.769531 602.910156 229.339844 604.082031 228.855469 C 605.253906 228.371094 606.398438 227.828125 607.515625 227.230469 C 608.636719 226.632812 609.722656 225.984375 610.777344 225.277344 C 611.832031 224.574219 612.847656 223.820312 613.828125 223.015625 C 614.808594 222.210938 615.746094 221.359375 616.644531 220.460938 C 617.539062 219.566406 618.390625 218.628906 619.195312 217.648438 C 620 216.667969 620.753906 215.648438 621.460938 214.59375 C 622.164062 213.539062 622.816406 212.453125 623.414062 211.335938 C 624.011719 210.21875 624.550781 209.074219 625.039062 207.902344 C 625.523438 206.730469 625.949219 205.535156 626.316406 204.324219 C 626.683594 203.109375 626.992188 201.882812 627.242188 200.636719 C 627.488281 199.394531 627.675781 198.140625 627.796875 196.878906 C 627.921875 195.617188 627.984375 194.351562 627.984375 193.082031 C 627.984375 191.816406 627.921875 190.550781 627.796875 189.289062 C 627.675781 188.027344 627.488281 186.773438 627.242188 185.53125 C 626.992188 184.285156 626.683594 183.058594 626.316406 181.84375 C 625.949219 180.628906 625.523438 179.4375 625.039062 178.265625 C 624.550781 177.09375 624.011719 175.949219 623.414062 174.832031 C 622.816406 173.714844 622.164062 172.628906 621.460938 171.574219 C 620.753906 170.519531 620 169.5 619.195312 168.519531 C 618.390625 167.539062 617.539062 166.601562 616.644531 165.707031 C 615.746094 164.808594 614.808594 163.957031 613.828125 163.152344 C 612.847656 162.347656 611.832031 161.59375 610.777344 160.890625 C 609.722656 160.183594 608.636719 159.535156 607.515625 158.9375 C 606.398438 158.339844 605.253906 157.796875 604.082031 157.3125 C 602.910156 156.828125 601.71875 156.398438 600.503906 156.03125 C 599.292969 155.664062 598.0625 155.355469 596.820312 155.109375 C 595.574219 154.859375 594.324219 154.675781 593.058594 154.550781 C 591.796875 154.425781 590.535156 154.363281 589.265625 154.363281 C 587.996094 154.363281 586.730469 154.425781 585.46875 154.550781 C 584.207031 154.675781 582.957031 154.859375 581.710938 155.109375 C 580.46875 155.355469 579.238281 155.664062 578.027344 156.03125 C 576.8125 156.398438 575.621094 156.828125 574.449219 157.3125 C 573.277344 157.796875 572.132812 158.339844 571.011719 158.9375 C 569.894531 159.535156 568.808594 160.183594 567.753906 160.890625 C 566.699219 161.59375 565.683594 162.347656 564.703125 163.152344 C 563.722656 163.957031 562.785156 164.808594 561.886719 165.707031 C 560.988281 166.601562 560.140625 167.539062 559.335938 168.519531 C 558.53125 169.5 557.777344 170.519531 557.070312 171.574219 C 556.367188 172.628906 555.714844 173.714844 555.117188 174.832031 C 554.519531 175.949219 553.980469 177.09375 553.492188 178.265625 C 553.007812 179.4375 552.582031 180.628906 552.214844 181.84375 C 551.84375 183.058594 551.539062 184.285156 551.289062 185.53125 C 551.042969 186.773438 550.855469 188.027344 550.730469 189.289062 C 550.609375 190.550781 550.546875 191.816406 550.546875 193.082031 Z M 550.546875 193.082031 " fill-opacity="1" fill-rule="nonzero"/><path fill="#fff8ed" d="M 402.257812 191.648438 C 402.257812 193.257812 402.335938 194.859375 402.496094 196.460938 C 402.652344 198.058594 402.886719 199.644531 403.203125 201.222656 C 403.515625 202.796875 403.90625 204.355469 404.371094 205.894531 C 404.835938 207.429688 405.378906 208.941406 405.992188 210.425781 C 406.609375 211.910156 407.292969 213.363281 408.050781 214.78125 C 408.808594 216.195312 409.636719 217.574219 410.527344 218.910156 C 411.421875 220.246094 412.375 221.535156 413.394531 222.777344 C 414.414062 224.019531 415.492188 225.207031 416.628906 226.34375 C 417.765625 227.480469 418.953125 228.558594 420.195312 229.578125 C 421.441406 230.597656 422.730469 231.554688 424.066406 232.445312 C 425.402344 233.339844 426.777344 234.164062 428.195312 234.921875 C 429.613281 235.679688 431.0625 236.367188 432.546875 236.980469 C 434.03125 237.597656 435.542969 238.136719 437.082031 238.601562 C 438.617188 239.070312 440.175781 239.460938 441.753906 239.773438 C 443.328125 240.085938 444.914062 240.320312 446.515625 240.480469 C 448.113281 240.636719 449.71875 240.714844 451.324219 240.714844 C 452.929688 240.714844 454.535156 240.636719 456.132812 240.480469 C 457.734375 240.320312 459.320312 240.085938 460.898438 239.773438 C 462.472656 239.460938 464.03125 239.070312 465.566406 238.601562 C 467.105469 238.136719 468.617188 237.597656 470.101562 236.980469 C 471.585938 236.367188 473.035156 235.679688 474.453125 234.921875 C 475.871094 234.164062 477.246094 233.339844 478.582031 232.445312 C 479.921875 231.554688 481.210938 230.597656 482.453125 229.578125 C 483.695312 228.558594 484.882812 227.480469 486.019531 226.34375 C 487.15625 225.207031 488.234375 224.019531 489.253906 222.777344 C 490.273438 221.535156 491.226562 220.246094 492.121094 218.910156 C 493.015625 217.574219 493.839844 216.195312 494.597656 214.78125 C 495.355469 213.363281 496.039062 211.910156 496.65625 210.425781 C 497.269531 208.941406 497.8125 207.429688 498.277344 205.894531 C 498.742188 204.355469 499.132812 202.796875 499.449219 201.222656 C 499.761719 199.644531 499.996094 198.058594 500.152344 196.460938 C 500.3125 194.859375 500.390625 193.257812 500.390625 191.648438 C 500.390625 190.042969 500.3125 188.441406 500.152344 186.839844 C 499.996094 185.242188 499.761719 183.652344 499.449219 182.078125 C 499.132812 180.5 498.742188 178.945312 498.277344 177.40625 C 497.8125 175.871094 497.269531 174.359375 496.65625 172.875 C 496.039062 171.386719 495.355469 169.9375 494.597656 168.519531 C 493.839844 167.101562 493.015625 165.726562 492.121094 164.390625 C 491.226562 163.054688 490.273438 161.765625 489.253906 160.523438 C 488.234375 159.28125 487.15625 158.089844 486.019531 156.957031 C 484.882812 155.820312 483.695312 154.742188 482.453125 153.722656 C 481.210938 152.703125 479.921875 151.746094 478.582031 150.851562 C 477.246094 149.960938 475.871094 149.136719 474.453125 148.378906 C 473.035156 147.621094 471.585938 146.933594 470.101562 146.320312 C 468.617188 145.703125 467.105469 145.164062 465.566406 144.695312 C 464.03125 144.230469 462.472656 143.839844 460.898438 143.527344 C 459.320312 143.214844 457.734375 142.976562 456.132812 142.820312 C 454.535156 142.664062 452.929688 142.585938 451.324219 142.585938 C 449.71875 142.585938 448.113281 142.664062 446.515625 142.820312 C 444.914062 142.976562 443.328125 143.214844 441.753906 143.527344 C 440.175781 143.839844 438.617188 144.230469 437.082031 144.695312 C 435.542969 145.164062 434.03125 145.703125 432.546875 146.320312 C 431.0625 146.933594 429.613281 147.621094 428.195312 148.378906 C 426.777344 149.136719 425.402344 149.960938 424.066406 150.851562 C 422.730469 151.746094 421.441406 152.703125 420.199219 153.722656 C 418.957031 154.742188 417.765625 155.820312 416.628906 156.957031 C 415.492188 158.089844 414.414062 159.28125 413.394531 160.523438 C 412.375 161.765625 411.421875 163.054688 410.527344 164.390625 C 409.636719 165.726562 408.808594 167.101562 408.050781 168.519531 C 407.292969 169.9375 406.609375 171.386719 405.992188 172.875 C 405.378906 174.359375 404.835938 175.871094 404.371094 177.40625 C 403.90625 178.945312 403.515625 180.5 403.203125 182.078125 C 402.886719 183.652344 402.652344 185.242188 402.496094 186.839844 C 402.335938 188.441406 402.257812 190.042969 402.257812 191.648438 Z M 402.257812 191.648438 " fill-opacity="1" fill-rule="nonzero"/><path fill="#000000" d="M 411.886719 191.648438 C 411.886719 192.941406 411.949219 194.230469 412.078125 195.515625 C 412.203125 196.800781 412.394531 198.078125 412.644531 199.34375 C 412.898438 200.609375 413.210938 201.863281 413.585938 203.097656 C 413.960938 204.335938 414.394531 205.546875 414.890625 206.742188 C 415.382812 207.933594 415.933594 209.101562 416.542969 210.242188 C 417.152344 211.378906 417.816406 212.484375 418.535156 213.558594 C 419.25 214.632812 420.019531 215.671875 420.839844 216.667969 C 421.660156 217.667969 422.523438 218.621094 423.4375 219.535156 C 424.351562 220.449219 425.308594 221.316406 426.304688 222.136719 C 427.304688 222.953125 428.339844 223.722656 429.414062 224.441406 C 430.488281 225.160156 431.59375 225.820312 432.734375 226.429688 C 433.871094 227.039062 435.039062 227.589844 436.230469 228.085938 C 437.425781 228.578125 438.640625 229.015625 439.875 229.390625 C 441.113281 229.765625 442.363281 230.078125 443.628906 230.328125 C 444.898438 230.582031 446.171875 230.769531 447.457031 230.898438 C 448.742188 231.023438 450.03125 231.085938 451.324219 231.085938 C 452.617188 231.085938 453.90625 231.023438 455.191406 230.898438 C 456.476562 230.769531 457.75 230.582031 459.019531 230.328125 C 460.285156 230.078125 461.535156 229.765625 462.773438 229.390625 C 464.007812 229.015625 465.222656 228.578125 466.417969 228.085938 C 467.609375 227.589844 468.777344 227.039062 469.914062 226.429688 C 471.054688 225.820312 472.160156 225.160156 473.234375 224.441406 C 474.308594 223.722656 475.34375 222.953125 476.34375 222.136719 C 477.339844 221.316406 478.296875 220.449219 479.210938 219.535156 C 480.125 218.621094 480.992188 217.667969 481.808594 216.667969 C 482.628906 215.671875 483.398438 214.632812 484.113281 213.558594 C 484.832031 212.484375 485.496094 211.378906 486.105469 210.242188 C 486.714844 209.101562 487.265625 207.933594 487.757812 206.742188 C 488.253906 205.546875 488.6875 204.335938 489.0625 203.097656 C 489.4375 201.863281 489.75 200.609375 490.003906 199.34375 C 490.253906 198.078125 490.445312 196.800781 490.570312 195.515625 C 490.699219 194.230469 490.761719 192.941406 490.761719 191.648438 C 490.761719 190.359375 490.699219 189.070312 490.570312 187.785156 C 490.445312 186.5 490.253906 185.222656 490.003906 183.957031 C 489.75 182.6875 489.4375 181.4375 489.0625 180.203125 C 488.6875 178.964844 488.253906 177.75 487.757812 176.558594 C 487.265625 175.363281 486.714844 174.199219 486.105469 173.058594 C 485.496094 171.921875 484.832031 170.8125 484.113281 169.738281 C 483.398438 168.664062 482.628906 167.628906 481.808594 166.632812 C 480.992188 165.632812 480.125 164.675781 479.210938 163.761719 C 478.296875 162.851562 477.339844 161.984375 476.34375 161.164062 C 475.34375 160.34375 474.308594 159.578125 473.234375 158.859375 C 472.160156 158.140625 471.054688 157.476562 469.914062 156.871094 C 468.777344 156.261719 467.609375 155.710938 466.417969 155.214844 C 465.222656 154.71875 464.007812 154.285156 462.773438 153.910156 C 461.535156 153.535156 460.285156 153.222656 459.019531 152.96875 C 457.75 152.71875 456.476562 152.527344 455.191406 152.402344 C 453.90625 152.277344 452.617188 152.210938 451.324219 152.210938 C 450.03125 152.210938 448.742188 152.277344 447.457031 152.402344 C 446.171875 152.527344 444.898438 152.71875 443.628906 152.96875 C 442.363281 153.222656 441.113281 153.535156 439.875 153.910156 C 438.640625 154.285156 437.425781 154.71875 436.230469 155.214844 C 435.039062 155.710938 433.871094 156.261719 432.734375 156.871094 C 431.59375 157.476562 430.488281 158.140625 429.414062 158.859375 C 428.339844 159.578125 427.304688 160.34375 426.304688 161.164062 C 425.308594 161.984375 424.351562 162.851562 423.4375 163.761719 C 422.523438 164.675781 421.660156 165.632812 420.839844 166.632812 C 420.019531 167.628906 419.25 168.664062 418.535156 169.738281 C 417.816406 170.8125 417.152344 171.921875 416.542969 173.058594 C 415.933594 174.199219 415.382812 175.363281 414.890625 176.558594 C 414.394531 177.75 413.960938 178.964844 413.585938 180.203125 C 413.210938 181.4375 412.898438 182.6875 412.644531 183.957031 C 412.394531 185.222656 412.203125 186.5 412.078125 187.785156 C 411.949219 189.070312 411.886719 190.359375 411.886719 191.648438 Z M 411.886719 191.648438 " fill-opacity="1" fill-rule="nonzero"/><path fill="#000000" d="M 53.78125 421.945312 C 54.34375 421.945312 54.917969 421.859375 55.484375 421.679688 C 58.449219 420.742188 60.09375 417.574219 59.152344 414.605469 C 50.734375 388.019531 42.027344 360.527344 41.742188 332.199219 C 41.429688 301.496094 52.164062 274.71875 70.460938 260.574219 C 85.292969 249.101562 104.398438 246.105469 121.128906 244.6875 C 124.230469 244.425781 126.53125 241.699219 126.269531 238.597656 C 126.003906 235.496094 123.28125 233.207031 120.175781 233.457031 C 101.808594 235.015625 80.71875 238.394531 63.566406 251.660156 C 42.496094 267.949219 30.125 298.101562 30.472656 332.3125 C 30.777344 362.324219 39.738281 390.632812 48.410156 418.011719 C 49.167969 420.410156 51.390625 421.945312 53.78125 421.945312 Z M 53.78125 421.945312 " fill-opacity="1" fill-rule="nonzero"/><path fill="#000000" d="M 172.464844 566.824219 C 175.195312 566.824219 177.59375 564.835938 178.023438 562.054688 C 178.503906 558.980469 176.398438 556.097656 173.324219 555.621094 C 153.578125 552.550781 133.8125 540.925781 117.664062 522.878906 C 101.902344 505.269531 91.015625 483.726562 82.449219 464.976562 C 81.152344 462.148438 77.8125 460.902344 74.980469 462.195312 C 72.148438 463.488281 70.902344 466.832031 72.195312 469.664062 C 81.117188 489.179688 92.5 511.660156 109.265625 530.398438 C 127.148438 550.375 149.28125 563.289062 171.589844 566.757812 C 171.882812 566.804688 172.175781 566.824219 172.460938 566.824219 Z M 172.464844 566.824219 " fill-opacity="1" fill-rule="nonzero"/></g></g></g><g clip-path="url(#cdf5c02106)"><path fill="#000000" d="M 902.851562 925.394531 L 902.875 925.34375 C 915.261719 896.984375 916.824219 860.007812 896.582031 834.78125 C 892.832031 830.257812 888.195312 825.820312 882.460938 824.160156 C 875.558594 822.15625 871.347656 826.847656 867.84375 832.023438 C 863.886719 837.558594 860.425781 843.394531 859.253906 850.148438 C 858.207031 855.5625 857.96875 861.484375 856.582031 867.074219 C 855.648438 870.957031 854.199219 874.71875 852.28125 878.183594 C 843.375 894.191406 825.402344 903.296875 819.066406 921.398438 C 817.515625 925.660156 816.9375 929.753906 816.378906 934.316406 C 816.214844 935.570312 816.03125 936.863281 815.804688 938.195312 C 812.882812 958.546875 795.746094 965.863281 797.910156 973.933594 C 798.832031 977.257812 802.714844 980.042969 806.132812 981.601562 C 846.445312 997.574219 887.375 960.628906 902.851562 925.394531 Z M 902.851562 925.394531 " fill-opacity="1" fill-rule="nonzero"/></g><g clip-path="url(#7b91e4340a)"><path fill="#000000" d="M 831.949219 891.253906 C 841.378906 882.5 848.777344 872.601562 850.625 859.613281 C 851.660156 853.777344 851.777344 848.773438 853.71875 842.984375 C 854.816406 839.679688 856.523438 836.167969 858.480469 833.117188 C 862.171875 826.960938 867.066406 824.183594 865.902344 819.476562 C 865.179688 816.871094 863.820312 814.234375 858.363281 812.445312 C 853.15625 810.898438 858.308594 812.417969 858.308594 812.417969 C 784.167969 788.277344 716.980469 904.488281 767.707031 960.472656 C 770.832031 963.976562 774.515625 967.324219 778.914062 969.011719 C 781.597656 970.078125 784.894531 970.351562 787.410156 969.160156 C 790.558594 967.722656 792.449219 964.882812 794.652344 961.960938 C 796.035156 960.078125 797.484375 958.261719 798.972656 956.441406 C 813.789062 940.4375 806.445312 920.871094 819.765625 903.882812 C 823.308594 899.25 827.800781 895.203125 831.949219 891.253906 Z M 846.011719 816.980469 C 816.671875 825.496094 792.6875 842.878906 775.488281 868.21875 C 774.484375 869.585938 773.800781 870.402344 773.578125 870.359375 L 773.570312 870.359375 C 773.34375 870.328125 773.601562 869.421875 774.199219 867.925781 C 785.925781 839.941406 811.5 813.753906 842.75 814.527344 C 844.265625 814.585938 847.824219 814.6875 848.289062 815.503906 C 848.464844 815.90625 847.664062 816.5 846.011719 816.980469 Z M 846.011719 816.980469 " fill-opacity="1" fill-rule="nonzero"/></g></svg>